<?xml version="1.0" encoding="UTF-8"?>
<!DOCTYPE svg PUBLIC "-//W3C//DTD SVG 1.1//EN" "http://www.w3.org/Graphics/SVG/1.1/DTD/svg11.dtd">
<svg width="1149pt" height="689pt" viewBox="0 0 1149 689" version="1.1" xmlns="http://www.w3.org/2000/svg">
<path fill="#ce142c" d=" M 0.00 0.00 L 1149.00 0.00 L 1149.00 689.00 L 0.00 689.00 L 0.00 0.00 Z"/>
<path fill="#1b0c09" d=" M 372.80 47.05 C 378.17 47.68 383.59 47.89 388.92 48.88 C 396.03 50.26 401.99 55.44 405.29 61.78 C 407.34 65.48 408.18 69.68 409.50 73.66 C 419.72 65.79 431.57 60.11 444.00 56.72 C 456.67 53.11 469.93 52.44 483.02 52.00 C 557.53 50.42 631.72 58.99 706.01 63.24 C 724.64 64.57 743.33 63.56 761.97 62.99 C 814.39 61.03 866.58 55.29 918.98 53.08 C 941.71 52.54 964.68 52.07 987.11 56.36 C 996.80 58.23 1006.19 61.61 1014.77 66.49 C 1014.27 68.03 1013.76 69.57 1013.26 71.10 C 994.64 69.26 975.86 69.74 957.28 71.84 C 940.49 73.57 923.90 76.79 907.23 79.39 C 918.69 82.45 927.95 91.80 931.73 102.95 C 949.05 95.64 968.45 94.31 986.85 97.69 C 993.14 98.83 999.37 100.27 1005.62 101.67 C 1005.50 103.41 1005.41 105.16 1005.33 106.90 C 988.16 106.85 971.41 111.21 955.01 115.86 C 933.30 122.34 911.54 129.30 888.96 132.05 C 877.38 133.78 865.66 132.69 854.01 133.04 C 846.46 133.37 839.08 131.48 831.58 131.16 C 844.56 135.06 857.49 139.43 870.98 141.22 C 888.93 144.12 907.41 143.44 925.11 139.29 C 933.89 137.41 942.30 134.19 950.99 131.99 C 963.52 127.71 976.81 122.12 990.24 125.76 C 997.68 127.20 1002.33 133.92 1009.13 136.65 C 1015.11 138.55 1020.75 134.82 1024.10 130.12 C 1028.60 123.93 1034.24 118.14 1041.70 115.71 C 1051.74 112.14 1062.60 113.12 1072.96 114.46 C 1069.34 121.00 1064.73 126.97 1060.05 132.78 C 1069.45 133.46 1079.07 131.93 1088.26 134.71 C 1098.15 136.81 1106.93 142.36 1113.84 149.64 C 1103.31 150.80 1090.56 150.49 1083.49 159.85 C 1092.87 160.07 1103.03 161.09 1110.74 166.95 C 1114.00 169.16 1114.18 173.35 1112.54 176.60 C 1115.93 179.88 1118.29 184.02 1119.75 188.48 C 1126.20 188.50 1132.65 188.46 1139.11 188.48 C 1138.21 192.26 1136.63 196.00 1133.64 198.60 C 1129.77 202.41 1124.20 203.35 1119.04 203.91 C 1115.43 204.09 1112.97 207.03 1109.99 208.65 C 1111.20 212.29 1112.55 216.04 1112.18 219.95 C 1112.07 222.02 1111.50 224.08 1111.70 226.17 C 1115.83 229.70 1121.35 230.77 1126.48 232.01 C 1126.47 233.65 1126.47 235.29 1126.48 236.93 C 1119.49 238.76 1112.34 241.36 1105.01 240.32 C 1101.34 239.93 1098.26 237.76 1095.44 235.57 C 1090.40 234.80 1085.74 232.39 1082.69 228.23 C 1078.54 234.54 1073.56 241.31 1065.93 243.45 C 1061.73 244.86 1057.36 243.16 1053.52 241.46 C 1048.84 247.18 1045.50 253.77 1041.99 260.22 C 1039.50 254.75 1036.86 249.17 1036.30 243.11 C 1035.56 237.80 1037.65 232.50 1040.94 228.40 C 1033.38 229.69 1025.61 228.55 1018.63 225.47 C 1011.47 230.75 1006.65 238.36 1002.67 246.16 C 999.50 238.38 996.02 229.62 998.93 221.23 C 1000.46 216.21 1006.92 214.57 1007.34 209.06 C 1008.26 204.58 1012.33 201.77 1016.16 199.84 C 1025.93 195.27 1036.80 194.05 1047.37 192.62 C 1043.91 188.41 1041.09 183.56 1036.56 180.35 C 1024.00 170.54 1007.42 169.12 992.09 168.13 C 952.50 166.81 913.31 173.80 873.90 176.28 C 849.36 178.07 824.42 178.55 800.17 173.79 C 784.01 170.43 767.96 164.57 754.98 154.13 C 752.98 152.58 751.19 150.74 749.03 149.41 C 745.63 150.95 742.50 153.18 740.06 156.00 C 737.05 159.16 737.81 164.93 741.65 167.09 C 749.19 171.93 759.02 171.34 766.37 176.60 C 773.38 181.75 772.48 193.03 766.88 198.89 C 760.10 205.05 750.05 204.07 742.42 208.54 C 735.22 213.33 733.76 222.79 727.48 228.47 C 721.97 234.21 713.83 235.80 706.26 236.69 C 708.84 230.06 711.20 222.83 708.89 215.73 C 706.86 224.41 703.65 233.53 696.26 239.11 C 687.85 245.34 676.90 245.65 666.87 245.40 C 671.52 236.36 677.50 227.49 678.13 217.01 C 672.95 223.17 667.81 229.45 661.47 234.48 C 652.56 242.04 641.07 246.78 629.34 247.00 C 632.64 239.34 636.01 231.60 636.86 223.21 C 634.28 225.96 631.50 228.57 628.03 230.16 C 624.48 231.76 622.63 235.56 619.10 237.18 C 616.78 238.36 614.18 238.85 611.87 240.02 C 609.53 242.10 607.57 244.57 605.18 246.59 C 631.78 248.66 658.40 250.60 685.02 252.49 C 706.31 253.72 727.92 256.22 749.04 251.92 C 771.74 247.93 792.45 237.24 812.67 226.67 C 825.37 220.16 838.09 213.11 852.21 210.20 C 861.06 208.21 870.33 208.78 879.08 211.05 C 873.89 213.49 868.49 215.52 863.59 218.54 C 853.35 224.73 844.62 232.99 835.26 240.36 C 831.52 242.90 827.72 245.36 824.28 248.31 C 835.16 246.55 845.93 244.03 856.42 240.64 C 879.28 234.99 902.10 228.92 925.47 225.67 C 947.97 222.78 972.50 221.93 992.85 233.60 C 992.55 235.24 992.22 236.88 991.91 238.52 C 973.12 237.03 953.83 237.89 935.78 243.67 C 921.61 246.79 908.06 252.02 894.38 256.74 C 909.55 260.84 924.94 270.79 929.02 286.86 C 939.16 283.17 949.45 279.65 960.23 278.35 C 975.35 276.15 990.89 277.29 1005.66 281.12 C 1005.54 282.70 1005.45 284.29 1005.36 285.89 C 990.97 286.39 976.72 289.24 963.21 294.19 C 945.12 300.40 927.52 308.11 908.93 312.79 C 881.23 320.42 852.12 320.88 823.66 318.40 C 841.32 325.76 859.86 331.57 879.01 333.23 C 899.87 335.58 921.08 332.46 940.93 325.86 C 950.76 322.76 960.37 318.89 970.40 316.43 C 978.42 314.34 987.24 314.58 994.88 317.95 C 1001.23 320.76 1005.31 328.54 1013.01 328.03 C 1019.97 328.16 1023.28 320.86 1027.47 316.50 C 1033.54 308.67 1043.26 304.46 1053.00 303.97 C 1059.62 303.68 1066.27 304.00 1072.81 305.17 C 1069.17 311.83 1064.52 317.88 1059.78 323.79 C 1072.86 323.17 1086.45 323.61 1098.50 329.28 C 1104.41 331.90 1109.29 336.24 1114.00 340.57 C 1103.57 341.97 1090.60 341.25 1083.68 350.77 C 1093.22 351.28 1103.80 352.09 1111.39 358.55 C 1114.18 360.80 1113.86 364.54 1112.49 367.48 C 1115.94 370.75 1118.24 374.96 1119.72 379.45 C 1126.20 379.44 1132.68 379.42 1139.17 379.47 C 1137.89 385.97 1133.18 391.87 1126.60 393.48 C 1122.52 395.13 1117.52 393.98 1114.03 397.01 C 1112.74 397.92 1111.45 398.82 1110.17 399.71 C 1112.41 405.30 1112.38 411.27 1111.70 417.15 C 1115.85 420.65 1121.30 421.88 1126.48 423.00 C 1126.49 424.62 1126.52 426.25 1126.56 427.89 C 1119.87 429.65 1113.10 432.09 1106.08 431.44 C 1102.07 431.09 1098.50 429.06 1095.43 426.59 C 1090.47 425.68 1085.65 423.55 1082.78 419.22 C 1078.56 425.40 1073.74 432.16 1066.19 434.38 C 1061.93 435.87 1057.46 434.24 1053.61 432.39 C 1049.04 438.22 1045.49 444.73 1041.95 451.20 C 1039.07 444.81 1035.86 438.16 1036.24 430.96 C 1036.41 426.70 1038.52 422.87 1040.81 419.39 C 1033.31 420.83 1025.61 419.46 1018.67 416.48 C 1011.54 421.75 1006.63 429.26 1002.73 437.08 C 999.63 429.49 995.85 420.99 998.75 412.74 C 1000.00 408.74 1003.68 406.44 1006.33 403.48 C 1007.30 401.06 1007.40 398.22 1009.14 396.16 C 1012.15 392.52 1016.58 390.53 1020.90 388.91 C 1029.31 385.92 1038.22 384.78 1047.05 383.80 C 1040.90 372.06 1028.71 364.79 1016.03 362.12 C 998.30 358.31 979.98 358.58 961.97 359.53 C 914.64 362.09 867.49 371.38 819.96 367.61 C 794.48 365.37 768.07 358.13 749.05 340.16 C 745.75 342.40 742.03 344.30 739.63 347.59 C 737.17 350.85 738.12 355.96 741.65 358.07 C 749.69 363.41 760.76 362.14 768.02 368.99 C 774.15 376.04 771.42 388.93 762.79 392.74 C 755.91 396.06 747.64 395.77 741.33 400.34 C 735.22 405.22 733.57 413.54 728.03 418.93 C 722.43 424.87 714.13 427.05 706.24 427.60 C 708.63 421.17 711.41 414.10 708.80 407.27 C 706.84 414.90 704.31 422.84 698.27 428.28 C 690.07 436.39 677.64 436.60 666.85 436.36 C 671.61 427.32 677.62 418.39 678.09 407.84 C 669.52 418.72 659.57 429.41 646.39 434.54 C 640.97 436.83 635.11 437.80 629.26 437.92 C 632.63 430.24 636.21 422.44 636.86 413.96 C 634.56 416.67 632.04 419.27 628.76 420.76 C 624.92 422.33 622.96 426.38 619.23 428.08 C 616.87 429.31 614.20 429.81 611.88 431.11 C 609.49 433.08 607.54 435.53 605.20 437.56 C 628.10 439.50 651.04 440.88 673.94 442.75 C 699.23 444.02 724.90 447.86 750.01 442.73 C 770.14 439.01 788.79 430.09 806.81 420.68 C 819.92 414.17 832.69 406.53 847.01 402.96 C 856.78 400.07 867.22 400.55 877.02 403.02 C 871.68 405.66 865.96 407.55 860.97 410.86 C 847.86 419.27 836.71 430.29 824.14 439.42 C 860.90 432.38 896.63 419.91 934.08 416.49 C 953.41 414.90 974.18 415.58 991.22 425.96 C 990.64 427.52 990.08 429.09 989.52 430.67 C 972.00 428.81 954.25 430.28 937.12 434.27 C 922.52 437.52 908.49 442.82 894.38 447.70 C 904.87 450.99 915.43 455.81 922.34 464.71 C 925.50 468.53 927.75 473.04 928.97 477.85 C 935.34 475.82 941.52 473.18 948.06 471.68 C 966.86 466.83 986.85 467.19 1005.61 472.05 C 1005.52 473.69 1005.44 475.33 1005.37 476.98 C 992.26 477.29 979.22 479.70 966.84 484.00 C 952.41 488.57 938.55 494.71 924.13 499.30 C 910.44 503.79 896.38 507.35 882.05 508.97 C 862.66 511.54 843.02 511.02 823.59 509.30 C 842.44 517.45 862.49 523.13 883.03 524.59 C 902.59 526.14 922.32 523.03 940.89 516.90 C 952.19 513.33 963.19 508.61 974.91 506.50 C 983.71 505.26 993.61 506.55 1000.44 512.73 C 1004.10 515.67 1007.86 519.65 1013.02 519.02 C 1019.71 519.14 1023.14 512.37 1027.02 508.02 C 1032.04 501.81 1038.95 497.06 1046.95 495.80 C 1055.54 494.14 1064.45 494.69 1073.02 496.24 C 1069.09 502.73 1064.56 508.84 1059.80 514.74 C 1071.88 514.22 1084.32 514.54 1095.69 519.14 C 1102.80 521.59 1108.58 526.57 1114.01 531.61 C 1103.56 532.90 1090.72 532.36 1083.73 541.76 C 1093.23 542.46 1103.92 542.94 1111.39 549.63 C 1114.20 551.94 1113.71 555.71 1112.72 558.79 C 1116.04 562.03 1118.32 566.11 1119.69 570.52 C 1126.19 570.51 1132.69 570.44 1139.20 570.44 C 1138.03 575.17 1135.57 579.73 1131.34 582.37 C 1127.19 585.41 1121.90 585.25 1117.09 586.20 C 1114.52 587.28 1112.28 589.10 1110.26 590.99 C 1112.07 596.42 1112.95 602.22 1111.36 607.84 C 1115.66 611.33 1121.03 612.95 1126.40 613.91 C 1126.45 615.54 1126.51 617.18 1126.60 618.82 C 1119.91 620.71 1113.10 623.02 1106.05 622.48 C 1102.04 622.13 1098.48 620.04 1095.42 617.57 C 1090.33 616.83 1085.75 614.34 1082.68 610.18 C 1078.27 616.81 1073.00 624.32 1064.58 625.78 C 1060.64 626.74 1057.05 624.19 1053.23 624.05 C 1048.41 629.32 1045.71 636.03 1041.88 641.96 C 1038.86 635.69 1035.99 628.97 1036.22 621.87 C 1036.36 617.63 1038.44 613.84 1040.82 610.44 C 1033.32 611.56 1025.62 610.68 1018.71 607.50 C 1011.35 612.60 1006.82 620.47 1002.49 628.08 C 999.86 620.69 996.10 612.75 998.40 604.77 C 999.41 600.29 1003.26 597.49 1006.49 594.60 C 1007.00 592.23 1007.27 589.67 1008.79 587.68 C 1011.59 583.90 1015.98 581.79 1020.26 580.14 C 1028.82 576.86 1038.01 575.96 1047.02 574.68 C 1043.81 569.52 1040.18 564.44 1034.94 561.18 C 1021.61 551.87 1004.76 550.80 989.05 550.05 C 936.83 549.03 885.25 561.08 833.00 559.34 C 814.00 558.79 794.83 556.05 777.11 548.92 C 766.78 544.73 757.27 538.67 749.05 531.15 C 745.72 533.37 741.97 535.27 739.62 538.62 C 737.32 541.66 737.86 546.57 741.14 548.72 C 749.20 554.45 760.62 553.00 768.00 559.96 C 774.25 567.00 771.37 580.02 762.68 583.76 C 756.42 586.79 749.12 586.84 743.00 590.16 C 736.41 594.15 734.47 602.14 729.81 607.84 C 724.41 615.23 714.96 618.01 706.21 618.58 C 708.85 612.16 711.17 605.14 709.01 598.22 C 706.67 605.53 704.65 613.45 698.73 618.81 C 690.59 627.28 677.92 627.67 666.95 627.38 C 671.28 618.30 677.62 609.70 678.07 599.27 C 669.40 609.28 660.30 619.81 647.74 624.94 C 641.97 627.55 635.70 628.79 629.39 629.00 C 632.59 621.23 636.01 613.45 636.99 605.02 C 634.47 607.91 631.59 610.51 628.06 612.10 C 624.74 613.55 623.02 617.05 619.87 618.76 C 616.45 620.78 611.94 620.96 609.48 624.42 C 601.32 633.87 589.00 638.16 577.17 640.88 C 583.46 634.86 589.83 627.93 590.78 618.86 C 587.42 616.63 585.18 613.25 584.13 609.39 C 575.53 614.85 565.24 617.70 555.06 617.20 C 551.26 617.08 547.74 615.51 544.03 614.97 C 532.03 615.01 521.11 620.56 510.72 625.97 C 513.65 617.92 517.72 610.01 524.42 604.44 C 528.68 600.41 534.55 599.12 539.94 597.31 C 539.67 596.54 539.39 595.79 539.09 595.05 C 535.12 593.92 530.85 593.75 527.12 591.82 C 524.17 590.29 522.02 587.68 519.85 585.24 C 514.45 584.89 508.97 584.47 503.61 585.49 C 498.50 586.49 493.96 589.15 489.13 590.98 C 492.12 583.37 495.79 575.62 502.52 570.60 C 507.50 566.95 513.89 565.38 520.02 565.98 C 523.67 566.30 527.32 566.40 530.98 566.31 C 536.37 566.18 541.26 568.67 546.29 570.23 C 547.95 569.82 547.43 567.73 547.92 566.49 C 542.20 563.22 535.86 561.09 529.25 560.72 C 528.94 559.12 528.63 557.54 528.33 555.96 C 534.52 553.18 541.21 551.51 548.00 551.27 C 554.60 551.16 560.95 553.15 567.26 554.79 C 575.75 557.17 581.71 564.27 586.99 570.91 C 598.34 571.16 609.69 570.48 621.02 569.79 C 638.76 568.27 656.79 565.76 673.11 558.23 C 666.23 554.31 658.84 550.48 654.43 543.59 C 650.87 538.13 649.95 531.47 649.84 525.09 C 608.21 525.57 567.46 536.67 529.05 552.13 C 490.93 567.02 454.06 585.85 413.94 594.99 C 390.38 600.48 365.77 601.74 341.86 597.84 C 331.21 596.29 320.85 593.29 310.54 590.26 C 312.95 597.94 312.19 606.07 311.97 613.98 C 303.31 614.64 294.40 613.48 286.86 608.91 C 284.13 612.73 281.18 616.57 277.08 619.02 C 271.15 622.74 263.96 623.00 257.22 623.94 C 257.25 620.30 257.22 616.67 257.02 613.04 C 251.04 619.34 243.54 624.40 234.92 626.16 C 229.69 627.49 224.24 626.98 218.93 626.55 C 220.86 620.89 222.83 614.69 220.32 608.86 C 215.37 616.45 208.09 622.95 199.13 625.19 C 194.92 626.49 190.50 626.78 186.12 626.69 C 187.14 621.38 188.81 616.05 187.90 610.59 C 183.07 616.71 176.60 621.70 168.96 623.66 C 161.70 625.43 154.23 626.00 146.91 627.46 C 148.46 624.20 150.68 621.34 152.35 618.16 C 153.87 615.36 154.05 612.12 154.38 609.02 C 149.26 611.32 144.75 614.80 139.43 616.69 C 128.09 621.35 115.22 621.11 103.59 617.67 C 109.45 613.94 115.72 610.61 120.12 605.07 C 113.42 607.17 106.04 609.36 99.10 607.03 C 96.18 606.27 94.51 603.62 92.88 601.31 C 90.55 603.23 88.02 604.87 85.53 606.56 C 77.77 612.56 71.53 620.34 63.64 626.16 C 64.52 619.22 66.15 612.39 67.49 605.53 C 69.07 600.86 63.90 597.83 63.50 593.38 C 58.69 593.50 53.63 593.92 49.11 591.90 C 43.92 589.43 39.32 585.07 37.97 579.31 C 29.05 578.27 20.15 579.74 11.44 581.55 C 10.93 579.92 10.43 578.30 9.96 576.68 C 16.74 572.08 23.30 567.01 30.85 563.70 C 33.79 562.44 36.93 561.75 39.87 560.50 C 39.90 558.34 37.72 557.09 36.75 555.35 C 33.52 551.10 34.22 545.41 35.34 540.56 C 27.77 536.48 19.14 535.34 10.65 535.47 C 15.75 529.57 22.14 524.26 29.84 522.30 C 34.47 521.23 39.74 521.45 43.71 524.30 C 46.06 525.77 48.00 528.30 51.05 528.11 C 55.66 527.99 59.33 530.90 62.83 533.50 C 63.27 533.02 64.16 532.07 64.60 531.59 C 61.34 525.87 56.42 521.28 50.57 518.26 C 50.97 516.71 51.37 515.18 51.77 513.64 C 58.76 514.02 66.12 514.32 72.43 517.71 C 76.07 519.83 78.24 523.57 80.37 527.08 C 85.90 529.21 86.79 535.76 86.92 540.92 C 86.94 548.51 91.51 555.17 96.98 560.05 C 108.55 569.97 123.83 575.04 138.96 575.46 C 148.32 575.78 158.00 573.30 165.25 567.17 C 157.25 568.90 148.93 571.42 140.75 569.17 C 132.97 567.27 127.60 560.53 124.51 553.50 C 130.69 552.61 137.11 551.75 142.39 548.13 C 134.17 548.46 124.74 549.72 117.89 544.10 C 112.16 539.31 111.45 531.33 111.95 524.37 C 116.83 525.17 121.85 525.56 126.65 524.04 C 123.41 522.99 121.61 520.40 121.10 517.13 C 118.62 516.95 116.07 517.11 113.67 516.39 C 111.36 515.47 109.46 513.77 107.17 512.80 C 98.94 512.22 90.96 514.69 83.03 516.53 C 85.45 508.70 89.53 501.06 96.11 495.95 C 98.99 493.70 102.54 492.58 105.91 491.29 C 105.80 490.99 105.59 490.40 105.49 490.10 C 102.07 488.16 98.65 485.65 97.30 481.77 C 95.90 478.82 96.70 475.54 97.27 472.52 C 94.64 469.13 91.10 466.50 87.14 464.89 C 82.59 462.90 77.51 463.04 72.78 461.72 C 78.77 458.15 85.05 454.62 92.07 453.69 C 98.57 452.81 105.04 455.10 110.54 458.42 C 112.08 459.46 113.94 459.66 115.74 459.87 C 115.79 455.67 117.33 451.81 118.85 447.99 C 116.50 440.66 108.64 437.34 102.21 434.32 C 102.34 432.70 102.47 431.09 102.61 429.48 C 110.65 428.87 119.06 429.03 126.57 432.32 C 130.06 433.89 132.66 436.78 135.26 439.49 C 137.97 439.86 140.94 440.03 143.04 442.03 C 146.39 444.72 147.41 449.07 148.41 453.04 C 152.19 452.18 152.85 448.12 153.38 444.86 C 153.79 441.72 153.53 438.54 153.36 435.39 C 151.23 435.75 149.09 436.08 146.96 436.41 C 149.78 430.47 155.60 424.84 153.67 417.70 C 144.30 424.70 132.80 429.48 120.96 429.19 C 115.04 429.37 109.21 428.19 103.52 426.67 C 109.38 423.01 115.56 419.63 120.10 414.27 C 113.51 416.05 106.56 418.14 99.75 416.25 C 96.59 415.52 94.66 412.75 92.72 410.41 C 90.07 412.57 87.13 414.32 84.45 416.43 C 77.31 422.50 70.94 429.44 63.66 435.35 C 64.62 427.17 66.74 419.19 68.04 411.06 C 66.02 408.45 64.25 405.60 63.44 402.36 C 57.71 402.66 51.49 402.83 46.51 399.50 C 42.29 397.03 39.23 392.94 37.93 388.24 C 29.08 387.35 20.23 388.57 11.61 390.55 C 10.95 389.04 10.29 387.54 9.64 386.04 C 17.86 380.18 26.05 373.70 35.93 370.95 C 37.35 370.41 39.01 370.19 40.11 369.08 C 38.26 366.11 35.55 363.53 34.77 360.00 C 33.87 356.53 34.67 352.97 35.36 349.55 C 27.77 345.51 19.17 344.33 10.68 344.41 C 17.40 336.61 27.13 329.27 38.02 331.00 C 42.16 331.36 45.06 334.54 48.37 336.64 C 50.83 337.47 53.54 337.19 56.00 338.03 C 58.45 339.02 60.40 340.86 62.43 342.50 C 63.18 341.80 63.93 341.11 64.69 340.42 C 61.19 335.09 56.70 330.23 50.82 327.53 C 51.09 325.88 51.38 324.23 51.67 322.58 C 58.16 323.01 64.88 323.29 70.94 325.91 C 74.63 327.48 77.01 330.87 79.19 334.08 C 80.93 336.82 84.41 338.15 85.52 341.34 C 87.45 346.59 86.14 352.49 88.49 357.65 C 91.70 364.89 97.70 370.63 104.46 374.59 C 116.63 381.59 130.84 385.41 144.90 384.20 C 152.31 383.57 159.73 381.01 165.31 375.98 C 157.37 378.13 148.97 380.31 140.78 378.25 C 133.02 376.30 127.56 369.54 124.57 362.45 C 130.70 361.73 136.92 360.60 142.32 357.43 C 134.50 357.02 125.78 358.79 118.95 353.92 C 112.33 349.46 111.43 340.68 111.97 333.39 C 116.59 334.00 121.36 334.77 125.90 333.28 C 123.56 331.50 121.62 329.29 121.14 326.28 C 118.86 326.09 116.55 326.09 114.31 325.59 C 111.67 324.82 109.63 322.82 107.14 321.72 C 98.83 321.36 90.75 323.72 82.73 325.56 C 85.47 318.83 88.40 311.85 93.91 306.88 C 97.15 303.37 101.79 301.93 106.05 300.14 C 103.19 297.27 99.09 295.42 97.55 291.42 C 95.80 288.17 96.96 284.47 96.95 281.00 C 91.17 273.55 81.41 272.12 72.72 270.71 C 79.31 266.96 86.19 262.87 93.98 262.59 C 100.74 262.24 107.30 264.85 112.68 268.80 C 114.34 268.45 116.85 268.67 116.17 266.13 C 115.94 262.54 118.25 259.57 118.88 256.21 C 115.66 249.67 108.79 246.08 102.29 243.54 C 102.38 241.82 102.48 240.11 102.58 238.40 C 110.84 238.00 119.54 237.95 127.15 241.63 C 131.56 243.44 133.71 248.80 138.85 249.10 C 145.04 250.21 147.27 256.72 148.49 262.07 C 152.14 261.18 152.84 257.23 153.36 254.05 C 153.78 250.83 153.53 247.59 153.32 244.37 C 151.23 244.69 149.14 245.01 147.04 245.31 C 149.97 239.45 155.20 233.97 153.89 226.86 C 148.17 230.43 142.38 234.07 135.85 235.96 C 125.40 239.31 114.05 238.68 103.60 235.72 C 109.41 232.00 115.65 228.69 120.05 223.20 C 113.10 225.25 105.41 227.50 98.35 224.70 C 95.72 223.90 94.33 221.43 92.92 219.29 C 90.10 221.77 86.74 223.49 83.83 225.85 C 77.00 231.88 70.79 238.61 63.68 244.33 C 64.67 236.16 66.67 228.16 68.04 220.05 C 65.95 217.48 64.23 214.60 63.49 211.35 C 57.07 211.77 49.93 211.73 44.75 207.32 C 41.16 204.98 39.55 200.96 37.53 197.40 C 28.88 196.04 20.08 197.89 11.58 199.55 C 10.91 198.06 10.25 196.57 9.58 195.09 C 17.09 189.88 24.33 183.95 33.07 180.92 C 35.59 179.96 38.49 179.53 40.36 177.41 C 34.37 173.13 33.26 165.13 35.40 158.48 C 27.73 154.61 19.16 153.39 10.65 153.42 C 17.05 146.18 25.67 139.22 35.89 139.77 C 40.78 139.77 44.99 142.65 48.31 145.99 C 51.33 146.30 54.68 145.98 57.30 147.81 C 59.31 149.11 61.30 150.47 63.59 151.24 C 63.82 150.75 64.27 149.77 64.50 149.28 C 61.26 143.64 56.22 139.38 50.66 136.15 C 50.97 134.79 51.29 133.44 51.61 132.09 C 58.81 132.76 66.70 132.07 73.06 136.14 C 77.19 138.65 78.67 143.69 82.57 146.47 C 88.42 151.16 85.63 159.55 88.10 165.79 C 91.34 173.95 98.30 180.04 105.76 184.35 C 118.76 191.42 133.99 195.10 148.75 192.70 C 154.74 191.52 160.74 189.24 165.27 185.01 C 157.55 187.11 149.44 189.24 141.44 187.40 C 133.45 185.68 127.47 178.90 124.76 171.44 C 130.82 170.65 137.07 169.69 142.28 166.25 C 134.48 166.26 125.78 167.73 118.98 162.90 C 112.33 158.51 111.40 149.69 111.96 142.42 C 116.83 143.20 121.84 143.67 126.61 142.05 C 123.57 140.87 121.56 138.46 121.11 135.21 C 116.39 135.21 111.55 134.41 107.87 131.22 C 99.39 130.78 91.03 132.88 82.76 134.50 C 85.72 128.20 88.33 121.43 93.58 116.61 C 97.00 112.96 101.78 111.24 106.37 109.60 C 102.92 106.78 98.44 104.49 97.15 99.87 C 95.72 96.79 97.34 93.41 96.67 90.26 C 90.76 82.92 80.88 80.92 71.92 80.48 C 78.87 76.82 85.85 72.32 93.94 72.00 C 99.77 71.62 105.37 73.80 110.33 76.66 C 112.08 77.84 114.17 78.00 116.22 78.04 C 115.75 73.92 116.86 69.91 119.26 66.55 C 116.09 59.53 108.96 55.57 102.12 52.85 C 102.32 51.25 102.45 49.64 102.82 48.07 C 110.70 47.41 118.97 47.47 126.35 50.69 C 129.75 52.06 132.23 54.88 134.67 57.50 C 137.61 58.18 140.80 58.63 143.19 60.65 C 146.32 63.16 147.18 67.27 148.24 70.93 C 149.29 70.72 150.35 70.51 151.41 70.30 C 154.04 64.24 154.12 57.54 152.68 51.18 C 156.11 52.09 159.86 52.76 162.50 55.32 C 166.77 58.88 168.08 64.72 168.02 70.04 C 167.61 74.12 171.55 76.97 171.39 81.01 C 171.35 86.04 168.37 90.50 164.47 93.47 C 160.64 96.34 157.35 100.22 156.25 104.98 C 154.51 113.89 157.09 122.99 161.15 130.90 C 166.10 140.19 171.92 149.14 179.45 156.55 C 193.17 169.22 211.06 176.59 229.34 179.66 C 225.99 169.05 230.91 158.03 237.08 149.49 C 234.81 147.97 232.19 146.11 232.39 143.01 C 232.52 134.63 238.68 126.89 246.56 124.27 C 246.68 122.26 246.81 120.24 246.91 118.23 C 244.04 115.96 241.36 113.19 240.43 109.54 C 238.09 101.71 239.86 93.04 244.10 86.18 C 246.37 82.67 249.85 79.46 254.21 79.13 C 257.38 78.79 260.07 80.70 262.88 81.80 C 264.78 76.46 265.23 70.45 268.77 65.78 C 270.28 63.38 273.63 62.49 276.11 63.90 C 279.40 65.77 281.06 69.35 283.01 72.43 C 285.60 67.17 287.47 61.09 292.41 57.48 C 294.89 55.28 298.97 55.40 301.37 57.66 C 305.11 60.80 306.38 65.73 308.10 70.09 C 310.73 65.04 313.94 60.08 318.66 56.74 C 321.40 54.77 325.84 55.37 327.49 58.50 C 330.19 63.61 330.12 69.59 330.53 75.21 C 334.35 72.77 339.00 67.85 343.73 71.14 C 347.28 75.00 345.51 80.86 344.63 85.44 C 347.03 84.80 349.59 83.49 352.08 84.53 C 354.92 85.79 355.27 89.27 355.28 91.99 C 355.07 98.16 352.61 103.95 350.17 109.53 C 352.92 110.59 356.31 111.43 357.61 114.42 C 362.64 123.99 359.55 136.23 352.07 143.62 C 373.57 146.43 395.32 146.13 416.90 144.45 C 443.33 142.74 469.59 139.13 495.85 135.74 C 504.26 134.62 512.62 133.08 521.11 132.64 C 604.07 120.96 687.07 107.33 770.99 105.27 C 779.30 105.22 787.63 104.79 795.92 105.54 C 825.06 108.14 853.76 114.66 883.02 115.97 C 890.24 115.91 898.15 116.56 904.55 112.60 C 907.25 110.91 907.18 106.93 905.52 104.53 C 903.18 101.11 899.54 98.88 895.87 97.13 C 884.99 92.22 873.12 90.12 861.38 88.38 C 857.53 87.85 853.71 88.78 849.92 89.24 C 839.01 90.79 827.98 91.28 816.97 91.22 C 814.30 90.98 811.98 92.35 809.81 93.70 C 800.37 99.67 789.25 103.49 777.98 102.91 C 765.65 102.27 753.82 98.40 742.05 94.98 C 739.74 94.26 737.29 93.94 734.89 94.35 C 664.21 104.04 593.71 115.12 522.89 123.79 C 494.38 126.95 465.78 130.64 437.04 130.15 C 425.76 129.84 414.10 128.46 403.95 123.18 C 396.88 119.45 391.87 112.30 390.53 104.45 C 388.01 91.46 391.56 77.96 388.09 65.11 C 385.90 57.13 379.24 51.67 372.80 47.05 Z"/>
<path fill="#041d65" d=" M 113.72 52.92 C 119.68 52.16 125.49 55.18 130.03 58.82 C 127.90 60.18 125.78 61.54 123.66 62.92 C 120.62 59.32 116.91 56.37 113.72 52.92 Z"/>
<path fill="#f1db18" d=" M 387.90 53.58 C 393.05 54.83 397.68 58.09 400.26 62.77 C 403.95 68.87 404.74 76.10 405.57 83.03 C 412.95 76.63 421.09 71.06 430.00 67.02 C 443.36 60.53 458.25 58.12 472.96 57.34 C 499.96 55.97 527.02 56.80 554.01 58.03 C 603.75 60.38 653.35 64.90 703.05 68.01 C 725.03 69.46 747.06 68.38 769.04 67.63 C 818.12 65.42 867.02 60.35 916.10 58.09 C 938.38 57.48 960.85 56.85 982.93 60.53 C 988.65 61.59 994.42 62.73 999.88 64.81 C 1000.61 65.06 1000.53 65.82 1000.58 66.45 L 999.78 65.11 C 955.15 63.59 911.52 74.52 867.81 81.74 C 846.73 85.07 825.27 87.91 803.93 85.50 C 795.82 84.64 787.98 82.38 780.15 80.21 C 783.27 83.30 786.03 86.80 789.60 89.40 C 792.56 91.59 796.12 92.67 799.58 93.79 C 787.21 99.95 772.90 98.42 760.00 94.98 C 738.97 89.33 718.22 82.55 696.90 78.03 C 638.29 64.60 577.81 64.26 518.00 63.59 C 502.97 63.62 487.92 63.07 472.91 64.03 C 457.41 65.38 441.87 68.87 427.93 75.97 C 421.03 79.61 414.31 84.33 410.13 91.06 C 407.25 95.61 406.85 102.17 410.64 106.33 C 413.93 110.34 418.93 112.30 423.83 113.52 C 435.63 116.45 447.92 115.66 459.94 115.06 C 467.31 114.46 474.93 113.88 481.74 110.77 C 485.00 109.40 487.54 105.72 486.06 102.16 C 483.92 97.90 479.61 95.41 475.71 92.99 C 487.90 90.22 500.63 92.99 511.74 98.29 C 517.45 100.90 522.86 104.10 528.27 107.27 C 528.90 99.97 527.94 92.24 523.02 86.47 C 535.96 87.16 549.34 88.30 561.15 94.11 C 566.23 96.41 570.66 99.82 575.16 103.07 C 575.22 99.72 575.54 96.19 574.13 93.05 C 572.20 88.23 568.32 84.64 564.78 81.00 C 573.42 80.98 582.11 81.86 590.40 84.38 C 601.15 87.32 611.60 92.54 623.01 92.01 C 645.11 91.26 667.03 88.23 689.01 85.99 C 693.98 85.60 698.94 84.42 703.96 84.78 C 712.04 86.14 719.77 89.04 727.82 90.58 C 657.56 99.87 587.58 111.27 517.18 119.53 C 491.20 122.39 465.14 125.56 438.96 125.33 C 427.63 124.93 415.63 124.28 405.58 118.45 C 399.93 115.27 396.20 109.39 395.16 103.05 C 393.17 90.19 396.34 76.91 392.81 64.23 C 391.85 60.40 389.91 56.94 387.90 53.58 Z"/>
<path fill="#041d65" d=" M 157.22 69.46 C 157.66 65.64 158.24 61.83 159.08 58.08 C 162.04 61.55 163.80 65.82 163.41 70.44 C 161.35 70.12 159.29 69.79 157.22 69.46 Z"/>
<path fill="#f1db18" d=" M 292.88 61.93 C 294.31 59.96 297.45 58.42 299.30 60.78 C 304.52 66.49 304.98 74.72 306.67 81.91 C 309.88 74.79 312.96 67.33 318.45 61.60 C 319.81 60.38 321.59 58.61 323.59 59.41 C 324.75 60.76 325.33 62.49 325.73 64.20 C 327.15 71.28 326.70 78.53 326.61 85.70 C 330.93 80.95 334.73 74.66 341.53 73.36 C 343.04 79.17 340.96 84.94 339.23 90.42 C 340.16 91.08 341.09 91.73 342.03 92.39 C 344.43 90.52 346.73 87.97 349.96 87.74 C 351.79 88.11 351.51 90.60 351.60 92.02 C 350.98 100.70 346.53 108.43 342.78 116.08 C 345.92 115.20 349.27 112.76 352.57 114.31 C 355.35 116.24 356.07 119.91 356.26 123.08 C 356.68 129.44 354.68 136.48 349.45 140.49 C 346.59 142.74 342.79 142.24 339.42 142.02 C 341.70 151.19 342.66 160.99 340.26 170.24 C 339.22 173.25 337.75 177.37 333.97 177.52 C 329.95 177.01 327.39 173.60 325.05 170.66 C 324.02 171.54 323.01 172.42 322.00 173.30 C 328.01 180.90 324.74 192.13 318.78 198.77 C 316.16 201.77 311.75 204.36 307.79 202.40 C 303.92 200.18 302.56 195.60 300.71 191.83 C 296.91 198.16 293.49 204.93 287.99 209.99 C 285.50 212.25 281.49 213.83 278.53 211.46 C 273.42 207.34 271.00 200.94 268.63 195.02 C 275.25 189.37 283.22 185.52 290.84 181.52 C 295.47 183.90 299.49 187.26 303.73 190.24 C 301.62 182.29 300.88 173.43 304.94 165.95 C 307.46 159.96 313.16 156.10 315.43 149.98 C 318.92 152.90 323.02 156.29 327.92 155.40 C 332.75 154.49 335.70 150.13 338.28 146.35 C 337.26 145.71 336.25 145.07 335.23 144.44 C 332.83 147.53 330.51 151.99 326.03 152.00 C 320.75 151.09 317.46 146.47 313.86 142.96 C 312.42 146.55 312.02 151.10 308.52 153.40 C 306.97 154.49 304.99 155.82 303.07 154.79 C 298.72 152.87 295.88 148.85 292.97 145.27 C 298.58 142.18 303.93 138.38 307.67 133.09 C 305.56 129.99 303.14 126.94 299.67 125.29 C 294.82 122.83 289.12 123.78 284.07 125.03 C 286.08 127.71 288.38 130.45 288.83 133.90 C 289.21 137.51 288.92 141.14 288.83 144.76 C 283.39 146.79 277.37 147.91 271.65 146.53 C 264.99 143.66 265.05 135.22 264.91 129.09 C 260.96 129.05 257.00 129.06 253.05 129.11 C 253.03 130.32 253.02 131.54 253.02 132.76 C 255.75 132.78 258.49 132.80 261.23 132.81 C 261.77 139.00 263.16 146.03 268.98 149.44 C 267.70 155.18 267.06 161.19 264.29 166.47 C 262.15 170.57 258.48 173.51 255.16 176.61 C 260.34 176.08 265.54 175.74 270.75 175.86 C 269.55 181.43 269.09 187.18 267.47 192.66 C 265.28 197.00 262.80 201.98 257.93 203.77 C 254.14 205.31 249.86 203.66 247.02 201.01 C 243.03 197.17 240.56 191.50 241.47 185.92 C 241.82 182.80 243.80 180.23 245.55 177.75 C 244.70 176.95 243.85 176.15 243.00 175.36 C 240.65 177.21 238.36 179.65 235.20 179.93 C 232.70 179.18 231.97 176.31 231.98 174.00 C 231.42 163.93 236.88 154.47 244.16 147.87 C 243.68 146.93 243.21 145.98 242.75 145.04 C 240.49 144.95 236.28 146.62 236.09 143.11 C 236.15 135.92 242.02 127.88 249.79 128.32 C 250.26 124.31 250.15 120.12 251.91 116.39 C 248.04 115.01 244.61 112.02 243.70 107.88 C 241.84 100.10 243.99 91.31 249.43 85.40 C 251.51 83.09 255.00 81.97 257.90 83.43 C 261.34 84.68 262.54 89.12 266.23 89.81 C 265.60 97.60 265.83 106.03 270.17 112.81 C 273.19 117.48 279.31 119.60 284.57 117.68 C 292.11 114.93 296.65 107.69 299.64 100.63 C 293.35 101.81 286.60 102.17 280.70 99.24 C 274.79 96.88 270.76 91.77 265.71 88.14 C 266.79 82.59 267.73 76.96 269.74 71.66 C 270.52 69.83 271.36 67.81 273.13 66.74 C 274.95 67.00 276.03 68.55 277.07 69.90 C 279.88 73.73 281.44 78.27 283.77 82.38 C 286.14 75.32 288.08 67.80 292.88 61.93 Z"/>
<path fill="#f1db18" d=" M 126.13 65.17 C 130.08 62.49 135.64 60.13 140.12 62.95 C 144.39 65.91 144.43 71.61 144.90 76.26 C 149.16 85.69 149.51 96.35 148.66 106.52 C 149.52 106.61 151.25 106.79 152.11 106.88 C 153.74 96.17 152.04 85.27 148.82 75.02 C 152.97 73.46 157.68 72.03 161.98 73.86 C 165.86 75.13 168.80 79.40 167.43 83.49 C 165.16 90.33 157.08 92.75 154.45 99.42 C 149.53 109.59 152.76 121.27 157.15 131.01 C 163.79 144.17 172.30 156.96 184.57 165.50 C 200.05 176.82 218.94 182.67 237.90 184.43 C 237.79 186.19 237.69 187.95 237.61 189.71 C 208.60 196.37 178.52 198.50 148.91 195.24 C 160.39 195.66 170.22 187.48 174.95 177.52 C 165.05 180.98 154.81 185.51 144.09 184.13 C 138.10 183.46 133.20 179.43 130.09 174.46 C 134.79 173.53 139.70 172.51 143.59 169.51 C 146.84 167.24 148.86 163.74 150.88 160.43 C 141.49 162.12 131.17 165.04 122.09 160.60 C 117.15 158.00 115.47 152.05 115.49 146.83 C 121.90 147.55 128.84 146.23 133.31 141.25 C 135.25 140.03 132.95 138.56 132.31 137.31 C 129.99 138.12 127.56 138.16 125.18 137.60 C 125.26 136.56 125.40 135.53 125.59 134.51 C 126.76 133.16 128.69 132.88 130.13 131.89 C 129.77 130.70 129.35 129.53 128.89 128.37 C 123.92 130.69 117.82 133.86 112.60 130.31 C 107.02 125.47 107.01 116.87 109.37 110.39 C 110.91 109.77 112.38 108.78 114.09 108.75 C 117.79 109.95 120.38 113.07 123.32 115.45 C 124.05 114.47 124.78 113.50 125.52 112.53 C 122.49 109.99 119.72 106.87 115.92 105.47 C 113.41 104.57 110.83 106.00 108.29 105.76 C 105.12 104.58 102.36 102.25 100.77 99.25 C 99.30 96.24 100.40 92.74 102.13 90.10 C 105.41 85.13 111.10 81.79 117.04 81.39 C 120.41 81.14 122.78 83.97 124.41 86.53 C 126.58 89.81 126.55 93.93 125.94 97.67 C 127.09 98.11 128.24 98.54 129.39 98.96 C 131.07 92.32 129.18 84.60 123.72 80.22 C 122.18 78.73 119.53 77.64 119.85 75.07 C 119.72 70.86 123.08 67.61 126.13 65.17 Z"/>
<path fill="#ce142c" d=" M 423.49 84.38 C 440.34 73.10 461.00 69.21 480.96 68.51 C 501.28 68.25 521.61 68.51 541.94 68.76 C 590.83 69.61 640.18 70.78 688.12 81.34 C 666.09 83.10 644.18 86.73 622.05 87.04 C 611.48 87.58 601.91 82.43 591.93 79.86 C 579.32 76.05 565.91 75.29 552.90 77.23 C 558.06 82.05 563.88 86.22 568.14 91.93 C 549.73 82.13 528.33 81.14 507.92 81.30 C 514.59 85.40 522.14 90.29 523.49 98.67 C 512.50 92.79 500.70 87.73 488.09 87.02 C 479.51 86.66 470.78 88.46 463.18 92.51 C 468.85 95.06 474.68 97.55 479.52 101.54 C 480.45 102.51 481.90 103.68 481.42 105.19 C 479.01 107.18 475.89 107.99 472.90 108.62 C 463.36 110.35 453.63 110.60 443.96 110.67 C 435.65 110.52 426.92 110.46 419.28 106.78 C 415.84 105.19 412.08 102.19 412.73 97.93 C 413.92 91.99 418.77 87.73 423.49 84.38 Z"/>
<path fill="#041d65" d=" M 88.20 77.65 C 94.64 75.68 101.53 76.94 107.28 80.26 C 104.85 82.41 102.41 84.56 99.99 86.72 C 96.69 83.19 92.61 80.63 88.35 78.43 C 88.31 78.23 88.24 77.84 88.20 77.65 Z"/>
<path fill="#f1db18" d=" M 873.17 85.48 C 881.53 84.66 889.68 82.40 898.02 81.43 C 905.55 82.86 912.84 86.24 918.66 91.28 C 924.06 96.01 926.90 102.92 928.32 109.81 C 935.05 106.87 941.91 104.10 949.14 102.61 C 962.22 99.85 975.85 100.46 988.89 103.10 C 968.65 106.13 949.24 112.78 929.62 118.38 C 913.40 123.02 896.84 126.78 879.97 128.04 C 855.85 129.98 831.45 127.18 808.15 120.78 C 807.58 122.37 807.01 123.96 806.49 125.57 C 813.23 128.48 819.75 131.97 826.85 134.01 C 847.92 142.28 870.33 147.78 893.06 147.86 C 911.49 147.99 929.66 143.89 947.01 137.94 C 955.81 134.82 964.73 132.02 973.88 130.09 C 980.71 128.98 988.21 129.05 994.37 132.61 C 999.17 134.98 1002.39 139.96 1007.79 141.23 C 1013.44 143.00 1020.10 141.57 1024.08 137.05 C 1028.84 132.51 1032.19 126.50 1037.92 123.05 C 1045.70 117.86 1055.55 117.63 1064.55 118.53 C 1060.76 123.98 1057.08 129.64 1052.04 134.04 C 1050.22 135.69 1048.50 137.44 1046.88 139.27 C 1065.27 136.85 1085.75 135.16 1102.07 145.80 C 1094.98 147.09 1087.20 148.57 1082.14 154.18 C 1078.77 158.08 1075.87 162.36 1072.44 166.21 C 1081.03 164.94 1089.94 164.08 1098.44 166.44 C 1102.55 167.48 1106.58 169.32 1109.40 172.59 C 1106.51 174.32 1103.08 174.03 1099.89 174.56 C 1097.01 174.98 1094.22 175.84 1091.42 176.56 C 1091.73 178.14 1092.03 179.73 1092.37 181.32 C 1097.12 180.09 1101.98 178.46 1106.96 179.11 C 1111.02 180.53 1112.96 184.78 1114.59 188.44 C 1113.76 188.46 1112.10 188.50 1111.28 188.52 C 1111.36 190.11 1111.26 191.75 1111.83 193.28 C 1112.52 195.37 1113.20 197.47 1113.88 199.58 C 1110.84 203.42 1105.77 205.67 1100.89 204.75 C 1097.50 204.43 1093.70 203.13 1092.24 199.77 C 1090.96 196.55 1090.55 193.07 1089.71 189.73 C 1088.18 190.17 1086.65 190.61 1085.13 191.05 C 1086.27 195.99 1086.49 201.76 1090.46 205.43 C 1094.34 209.35 1100.24 209.36 1105.34 210.19 C 1106.62 213.53 1107.43 217.02 1107.55 220.61 C 1104.00 221.48 1100.19 222.04 1097.16 224.24 C 1095.11 225.69 1094.01 228.02 1092.88 230.18 C 1090.81 228.96 1088.50 227.86 1087.14 225.80 C 1085.54 223.69 1085.74 220.94 1085.24 218.48 C 1084.00 210.22 1076.04 204.57 1076.22 195.89 C 1074.62 195.92 1073.03 195.94 1071.46 195.96 C 1071.72 198.68 1071.89 201.48 1072.95 204.04 C 1074.97 209.31 1079.26 213.50 1080.51 219.10 C 1081.44 221.46 1079.60 223.53 1078.53 225.46 C 1075.22 230.59 1071.59 236.19 1065.65 238.50 C 1062.73 239.68 1059.60 238.66 1056.78 237.75 C 1057.45 236.90 1058.13 236.05 1058.82 235.21 C 1057.81 234.28 1056.82 233.36 1055.82 232.45 C 1055.36 232.36 1054.44 232.16 1053.98 232.07 C 1051.53 231.29 1049.16 230.23 1047.15 228.63 C 1045.97 227.30 1044.97 225.82 1043.92 224.41 C 1050.27 217.87 1056.45 209.69 1055.58 200.02 C 1054.00 200.25 1052.42 200.48 1050.86 200.72 C 1050.83 204.63 1050.02 208.56 1047.81 211.85 C 1045.47 216.21 1041.13 219.11 1039.14 223.67 C 1033.71 224.38 1028.12 224.05 1023.02 221.98 C 1023.61 221.51 1024.80 220.58 1025.40 220.11 C 1024.58 218.99 1023.79 217.88 1023.00 216.77 C 1022.57 216.76 1021.71 216.73 1021.28 216.71 C 1018.17 215.83 1015.19 214.53 1012.35 213.01 C 1010.86 211.92 1011.99 209.71 1012.74 208.50 C 1014.94 205.60 1018.44 204.09 1021.74 202.77 C 1032.12 199.02 1043.22 198.06 1054.15 197.20 C 1050.08 185.67 1041.49 175.68 1030.18 170.80 C 1014.15 163.77 996.27 163.11 979.03 163.01 C 927.44 163.77 876.33 175.23 824.62 172.05 C 807.21 170.84 789.60 167.80 773.79 160.09 C 762.01 154.39 751.24 146.19 743.62 135.47 C 735.82 125.87 722.71 123.45 710.96 123.77 C 710.97 125.36 710.97 126.94 710.98 128.53 C 720.80 128.71 732.09 129.60 739.07 137.41 C 733.81 142.67 726.50 145.45 719.12 145.66 C 704.55 146.27 690.34 142.36 676.07 140.02 C 656.92 136.44 637.32 138.31 618.14 140.59 C 575.68 146.01 535.44 161.53 496.37 178.35 C 470.71 189.13 445.07 200.40 417.97 207.12 C 384.95 215.61 349.56 215.43 316.98 205.00 C 325.22 199.57 329.60 189.31 328.71 179.60 C 331.51 180.85 335.02 181.88 337.85 180.12 C 341.71 177.84 343.22 173.30 344.22 169.19 C 345.90 161.84 345.38 154.21 344.26 146.82 C 366.52 151.61 389.47 150.97 412.06 149.74 C 449.96 147.22 487.58 141.78 525.17 136.52 C 535.15 135.17 545.08 133.33 555.14 132.66 C 626.40 122.43 697.87 112.06 769.95 110.19 C 778.31 110.13 786.70 109.68 795.05 110.40 C 820.15 112.55 844.89 117.68 869.98 119.98 C 879.77 120.72 889.74 121.71 899.46 119.74 C 903.40 118.91 907.62 117.46 910.02 114.01 C 912.74 109.83 911.71 104.07 908.52 100.44 C 903.33 94.23 895.39 91.40 887.93 88.99 C 883.08 87.52 878.16 86.32 873.17 85.48 Z"/>
<path fill="#1b0c09" d=" M 250.20 94.13 C 250.75 92.47 252.09 90.63 254.02 90.67 C 257.01 90.52 258.65 93.49 260.61 95.24 C 259.69 96.04 258.77 96.83 257.85 97.63 C 256.61 96.36 255.36 95.10 254.08 93.88 C 252.06 98.73 253.15 104.20 255.92 108.51 C 254.90 109.11 253.88 109.72 252.87 110.33 C 249.86 105.60 248.33 99.58 250.20 94.13 Z"/>
<path fill="#f1db18" d=" M 269.54 96.53 C 272.22 98.40 274.92 100.24 277.74 101.90 C 275.80 106.11 275.83 111.10 278.56 114.96 C 271.32 112.03 269.71 103.48 269.54 96.53 Z"/>
<path fill="#1b0c09" d=" M 314.52 102.13 C 317.67 106.67 320.67 111.45 324.99 115.00 C 330.45 119.73 337.94 121.54 345.04 120.88 C 347.55 120.42 349.48 122.65 349.53 125.03 C 349.73 130.46 346.57 135.27 343.03 139.11 C 342.13 138.33 341.23 137.55 340.33 136.77 C 343.60 133.30 346.46 129.02 345.88 124.02 C 340.37 124.99 337.38 130.17 332.60 132.50 C 327.82 134.53 322.11 135.06 317.40 132.56 C 313.88 130.22 312.31 125.95 311.77 121.93 C 310.82 115.21 312.56 108.51 314.52 102.13 Z"/>
<path fill="#f1db18" d=" M 283.98 104.38 C 287.05 104.89 290.17 105.14 293.28 105.30 C 290.50 109.68 286.70 113.51 281.57 114.94 C 284.48 112.18 284.41 108.06 283.98 104.38 Z"/>
<path fill="#f1db18" d=" M 315.90 110.83 C 317.75 112.87 319.59 114.91 321.55 116.83 C 319.09 118.44 317.03 120.54 315.29 122.91 C 315.01 118.87 315.12 114.81 315.90 110.83 Z"/>
<path fill="#041d65" d=" M 91.02 127.95 C 93.86 122.45 98.18 117.52 104.13 115.36 C 104.39 119.02 104.79 122.67 105.39 126.30 C 100.58 126.65 95.80 127.34 91.02 127.95 Z"/>
<path fill="#f1db18" d=" M 325.84 120.12 C 329.35 122.24 333.23 123.62 337.24 124.46 C 332.64 129.38 325.40 133.25 318.81 129.71 C 321.97 127.20 324.87 124.18 325.84 120.12 Z"/>
<path fill="#041d65" d=" M 61.14 137.32 C 66.63 137.49 72.42 139.94 74.96 145.09 C 72.97 145.73 70.97 146.36 68.97 146.99 C 66.41 143.73 63.63 140.64 61.14 137.32 Z"/>
<path fill="#f1db18" d=" M 714.99 150.61 C 724.67 150.87 734.79 148.27 741.94 141.43 C 743.15 142.76 744.37 144.09 745.61 145.42 C 742.05 147.81 738.31 150.17 735.72 153.66 C 732.25 158.44 732.59 165.90 737.20 169.84 C 744.93 176.62 756.74 174.92 764.56 181.52 C 768.27 186.20 766.42 194.35 761.05 197.09 C 753.92 200.97 744.96 200.33 738.40 205.42 C 732.44 209.86 730.18 217.26 725.86 223.01 C 722.90 226.90 718.39 229.20 713.78 230.51 C 716.42 220.67 713.38 210.19 706.74 202.64 C 704.33 212.54 703.37 223.44 696.86 231.73 C 691.74 238.24 683.12 240.30 675.22 240.56 C 677.94 235.25 680.53 229.81 681.86 223.96 C 683.73 216.89 683.43 209.49 682.69 202.29 C 674.03 214.43 665.07 227.06 652.22 235.11 C 647.63 238.09 642.50 240.17 637.15 241.29 C 641.58 230.71 642.68 219.15 642.04 207.79 C 638.61 211.82 635.52 216.12 632.47 220.44 C 630.45 223.35 627.46 225.41 624.08 226.42 C 622.58 223.94 621.87 221.14 621.56 218.29 C 619.95 218.29 618.35 218.29 616.76 218.29 C 616.98 222.50 618.26 226.65 620.93 229.96 C 614.84 235.56 605.81 236.37 598.06 234.59 C 595.11 233.71 591.88 232.45 590.24 229.68 C 588.51 226.91 589.02 223.24 590.69 220.58 C 593.08 218.23 596.47 217.45 599.51 216.29 C 599.17 214.73 598.83 213.17 598.50 211.62 C 594.07 212.97 589.31 214.47 586.29 218.22 C 581.69 224.80 573.67 227.76 566.16 229.54 C 559.47 230.53 551.52 231.70 545.81 227.18 C 541.65 223.56 543.48 217.53 545.07 213.09 C 558.00 212.73 570.94 212.89 583.88 212.74 C 583.88 211.14 583.89 209.54 583.91 207.94 C 569.94 207.98 555.96 208.03 541.99 207.99 C 536.76 207.98 531.20 207.10 526.95 203.85 C 522.38 200.18 523.40 192.40 528.04 189.25 C 534.90 188.18 541.06 192.08 547.53 193.59 C 557.50 195.19 567.66 194.68 577.68 193.91 C 577.57 192.29 577.46 190.68 577.36 189.07 C 568.90 189.74 560.39 190.14 551.92 189.33 C 552.65 185.30 554.02 180.97 557.54 178.51 C 560.75 176.15 565.20 176.70 568.58 178.42 C 575.37 181.74 580.21 187.82 584.42 193.90 C 604.71 193.78 625.12 193.22 645.14 189.64 C 659.13 187.04 673.03 182.91 685.22 175.40 C 675.86 171.69 665.39 168.33 659.19 159.84 C 655.50 154.99 654.79 148.78 654.77 142.89 C 675.15 142.69 694.66 150.14 714.99 150.61 Z"/>
<path fill="#ce142c" d=" M 590.38 150.44 C 609.90 146.16 629.82 143.32 649.83 143.06 C 650.00 150.56 651.32 158.67 656.58 164.41 C 660.94 169.75 667.17 172.90 673.14 176.08 C 657.25 183.76 639.42 186.05 622.03 187.71 C 611.00 188.33 599.95 189.14 588.90 188.93 C 586.34 189.30 585.32 186.57 583.86 185.05 C 579.42 179.77 574.18 174.52 567.29 172.78 C 560.95 171.17 554.58 169.09 547.97 169.28 C 541.13 169.45 534.41 171.29 528.21 174.13 C 528.59 175.70 528.97 177.28 529.36 178.85 C 535.92 178.90 542.08 181.35 547.79 184.38 C 547.68 185.59 547.57 186.81 547.47 188.02 C 542.49 187.40 538.01 184.75 532.98 184.39 C 528.99 184.11 524.99 184.44 521.02 184.02 C 515.04 183.38 508.87 184.64 503.70 187.72 C 499.07 191.08 495.20 195.56 492.81 200.77 C 491.54 203.55 490.31 206.36 488.60 208.89 C 493.97 207.41 498.79 204.34 504.31 203.38 C 509.47 202.53 514.72 202.93 519.90 203.24 C 522.22 205.84 524.48 208.70 527.75 210.15 C 531.48 211.76 535.56 212.29 539.56 212.83 C 539.54 213.72 539.53 214.62 539.53 215.52 C 534.26 217.16 528.55 218.45 524.47 222.43 C 518.25 227.52 514.20 234.67 511.47 242.13 C 495.59 242.35 479.66 242.21 463.83 243.68 C 444.31 245.45 425.11 252.29 409.41 264.13 C 407.45 256.34 404.59 247.96 397.65 243.22 C 390.53 238.05 381.34 238.84 373.07 237.50 C 378.34 241.94 384.53 246.02 387.00 252.80 C 392.81 267.47 386.83 283.76 391.46 298.67 C 393.66 306.19 399.75 312.17 406.87 315.19 C 412.65 317.61 418.81 319.02 425.02 319.81 C 446.33 322.42 467.79 319.64 488.99 317.31 C 532.40 311.83 575.52 304.28 618.56 296.47 C 650.70 290.95 682.74 284.81 714.87 279.23 C 720.63 278.50 726.05 281.20 731.54 282.52 C 745.26 286.26 758.76 291.17 772.92 293.00 C 785.13 294.66 797.79 291.79 808.21 285.23 C 811.16 283.70 813.67 281.15 816.95 280.32 C 830.56 279.02 843.83 275.35 856.73 270.93 C 860.07 269.84 863.40 267.70 867.06 268.47 C 877.80 270.27 888.77 272.43 898.40 277.76 C 901.63 279.56 904.96 281.88 906.26 285.52 C 907.30 288.16 906.38 291.44 903.88 292.90 C 897.14 297.26 888.86 297.66 881.11 298.47 C 858.38 300.04 835.63 297.98 812.94 296.84 C 789.32 294.98 765.59 295.75 741.96 296.95 C 643.91 302.38 547.33 321.23 449.91 332.48 C 417.47 335.75 384.59 339.05 352.10 334.51 C 359.58 327.12 362.52 314.73 357.69 305.15 C 356.33 302.16 353.03 301.06 350.17 300.06 C 352.71 293.97 355.59 287.66 355.22 280.90 C 355.18 278.30 353.82 275.36 351.07 274.76 C 348.85 274.60 346.74 275.40 344.62 275.90 C 345.48 272.02 346.35 267.96 345.40 264.01 C 344.55 261.40 341.42 260.16 338.89 260.72 C 335.67 261.69 333.13 264.00 330.50 265.98 C 330.16 260.13 330.15 253.95 327.29 248.67 C 325.63 245.86 321.63 245.41 319.01 247.07 C 314.00 250.19 311.13 255.53 307.90 260.28 C 306.22 255.91 304.93 250.91 301.04 247.93 C 298.53 245.86 294.60 245.98 292.17 248.13 C 287.46 251.82 285.44 257.70 283.09 262.97 C 280.96 259.64 279.03 255.54 275.11 254.03 C 272.37 252.88 269.59 254.81 268.21 257.10 C 265.28 261.77 264.26 267.30 263.17 272.62 C 259.77 270.66 255.72 268.66 251.75 270.20 C 244.83 272.80 241.51 280.29 240.00 287.03 C 238.15 294.90 240.01 304.20 247.06 308.94 C 246.87 310.82 246.80 312.73 246.37 314.58 C 243.74 316.49 240.33 317.42 238.25 320.09 C 234.86 324.21 231.95 329.49 232.57 334.99 C 232.81 337.77 235.12 339.40 237.59 340.16 C 230.71 348.39 226.14 359.93 229.35 370.60 C 209.67 367.47 190.34 359.07 176.44 344.51 C 168.24 334.83 161.06 323.96 157.30 311.75 C 155.37 304.75 154.56 296.59 158.53 290.14 C 161.53 285.01 167.89 282.72 170.12 277.02 C 171.89 273.63 171.84 269.47 169.71 266.25 C 166.86 262.36 168.75 257.30 167.02 253.02 C 165.95 248.60 162.68 245.05 158.46 243.41 C 169.74 242.76 181.51 238.18 187.67 228.20 C 189.04 233.81 187.16 239.40 186.13 244.89 C 192.02 244.65 198.05 244.13 203.52 241.72 C 210.50 238.67 215.99 233.06 220.40 226.96 C 222.65 232.80 221.04 238.98 218.86 244.57 C 227.81 245.75 237.22 244.89 245.19 240.37 C 249.64 238.02 253.31 234.52 257.00 231.16 C 257.18 234.75 257.23 238.33 257.27 241.92 C 263.77 241.08 270.62 240.78 276.42 237.38 C 281.01 235.15 283.93 230.83 286.90 226.87 C 294.37 231.64 303.35 232.61 312.01 231.96 C 312.15 224.01 312.98 215.84 310.57 208.11 C 339.82 218.07 371.54 220.77 401.98 215.37 C 444.82 208.04 483.89 188.16 523.88 172.16 C 545.55 163.52 567.60 155.62 590.38 150.44 Z"/>
<path fill="#041d65" d=" M 22.86 149.13 C 25.58 147.06 28.35 144.46 32.03 144.61 C 36.29 143.83 40.42 145.37 43.76 147.95 C 41.57 149.84 39.54 151.91 37.67 154.12 C 32.88 152.05 27.87 150.58 22.86 149.13 Z"/>
<path fill="#f1db18" d=" M 64.85 154.28 C 68.72 151.44 73.01 148.27 78.02 148.29 C 82.10 148.81 83.01 153.63 82.99 157.01 C 82.96 165.40 86.80 173.53 92.91 179.20 C 104.72 190.46 120.97 196.10 137.06 197.15 C 170.63 202.64 205.18 200.84 238.30 193.32 C 240.36 200.48 246.17 207.24 253.93 207.98 C 259.32 208.55 263.82 204.91 267.04 201.01 C 269.72 206.59 272.74 212.69 278.53 215.61 C 281.72 216.84 285.51 216.25 288.27 214.23 C 293.49 210.64 297.02 205.21 300.21 199.85 C 302.56 202.84 305.92 205.22 307.02 209.03 C 308.98 215.28 308.75 221.94 308.37 228.41 C 299.98 229.11 291.97 226.03 285.13 221.40 C 282.97 225.62 280.75 230.12 276.78 232.94 C 272.24 236.21 266.53 237.02 261.13 237.76 C 261.10 232.35 259.87 227.06 258.79 221.79 C 255.90 226.10 252.90 230.47 248.78 233.70 C 241.82 239.23 232.80 241.79 223.97 241.38 C 224.64 238.32 225.43 235.21 225.17 232.05 C 224.90 227.31 222.74 223.00 220.91 218.70 C 217.07 225.30 212.77 232.02 206.17 236.18 C 201.56 239.17 196.11 240.43 190.71 241.05 C 192.87 234.02 192.18 226.42 188.58 220.00 C 185.43 225.44 181.93 231.03 176.46 234.41 C 169.89 238.55 161.99 239.39 154.47 240.35 C 157.67 234.19 159.12 226.96 156.53 220.30 C 149.89 225.09 143.06 229.92 135.13 232.30 C 128.15 234.65 120.67 235.14 113.40 234.06 C 116.77 231.60 120.22 229.10 122.64 225.64 C 124.90 222.62 126.05 218.99 127.30 215.48 C 119.17 219.68 109.84 223.99 100.52 221.61 C 95.97 220.50 95.38 215.13 96.73 211.38 C 95.57 210.94 94.42 210.51 93.27 210.08 C 91.77 213.92 89.96 218.26 85.85 219.94 C 78.19 223.61 68.01 218.21 66.81 209.76 C 72.03 208.15 77.44 207.42 82.86 206.88 C 82.77 205.70 82.69 204.52 82.61 203.34 C 76.32 203.77 70.03 204.71 64.09 206.88 C 56.23 209.90 46.18 206.63 42.40 198.91 C 39.19 192.35 40.90 184.67 43.61 178.25 C 59.73 179.92 69.67 195.71 85.57 198.05 C 85.68 196.84 85.79 195.64 85.91 194.43 C 72.15 192.01 63.09 179.80 50.00 175.83 C 46.87 174.66 42.68 175.55 40.52 172.51 C 35.23 165.87 38.87 155.63 45.45 151.31 C 49.64 148.53 55.32 149.80 58.69 153.27 C 66.46 161.16 74.22 169.06 81.97 176.98 C 82.84 177.63 83.51 178.89 84.72 178.90 C 85.55 178.31 86.36 177.70 87.15 177.06 C 79.73 169.45 72.36 161.80 64.85 154.28 Z"/>
<path fill="#041d65" d=" M 276.98 151.23 C 281.44 150.96 285.81 150.01 290.04 148.57 C 293.31 152.62 297.36 155.91 301.52 159.00 C 298.80 165.63 295.70 172.42 289.98 177.03 C 284.68 181.28 278.62 184.63 272.34 187.19 C 274.16 175.25 277.13 163.39 276.98 151.23 Z"/>
<path fill="#ce142c" d=" M 265.40 171.70 C 270.90 166.43 271.23 158.41 272.62 151.40 C 273.10 158.16 271.80 164.82 271.32 171.53 C 269.34 171.57 267.37 171.62 265.40 171.70 Z"/>
<path fill="#ce142c" d=" M 294.42 178.85 C 295.90 177.09 297.31 175.26 298.49 173.29 C 297.87 175.89 297.56 178.55 297.71 181.23 C 296.62 180.42 295.51 179.63 294.42 178.85 Z"/>
<path fill="#041d65" d=" M 539.44 175.16 C 544.42 173.83 549.64 173.76 554.70 174.72 C 552.96 176.40 551.34 178.18 549.80 180.03 C 546.30 178.50 542.82 176.92 539.44 175.16 Z"/>
<path fill="#041d65" d=" M 21.09 192.64 C 26.24 189.29 31.60 186.26 37.33 184.02 C 37.35 186.70 37.28 189.39 37.18 192.08 C 31.81 191.99 26.44 192.15 21.09 192.64 Z"/>
<path fill="#041d65" d=" M 498.88 199.75 C 502.99 191.51 512.70 187.50 521.58 188.60 C 520.30 191.71 519.53 194.99 519.26 198.34 C 512.44 197.94 505.51 197.83 498.88 199.75 Z"/>
<path fill="#041d65" d=" M 1111.83 193.28 C 1118.20 193.07 1124.57 193.26 1130.94 193.36 C 1130.85 193.94 1130.68 195.09 1130.60 195.67 C 1125.52 198.68 1119.63 199.18 1113.88 199.58 C 1113.20 197.47 1112.52 195.37 1111.83 193.28 Z"/>
<path fill="#041d65" d=" M 1012.35 213.01 C 1015.19 214.53 1018.17 215.83 1021.28 216.71 C 1017.92 220.22 1013.82 222.91 1010.47 226.43 C 1008.03 228.93 1005.94 231.73 1003.69 234.39 C 1002.01 230.26 1001.65 225.15 1004.26 221.32 C 1006.11 218.22 1009.35 216.42 1012.33 214.56 C 1012.33 214.17 1012.34 213.39 1012.35 213.01 Z"/>
<path fill="#f1db18" d=" M 832.91 222.00 C 841.98 217.87 851.54 214.14 861.64 213.94 C 843.70 224.71 830.07 241.89 810.42 249.91 C 810.71 251.52 810.97 253.14 811.43 254.73 C 830.54 253.51 848.95 247.67 867.50 243.29 C 877.18 240.00 887.22 237.99 897.17 235.71 C 917.15 231.51 937.50 227.86 958.01 228.93 C 965.37 229.26 972.70 230.55 979.70 232.86 C 962.28 232.64 944.95 235.41 928.21 240.11 C 912.30 245.29 896.43 250.62 880.88 256.80 C 857.39 265.58 833.53 275.86 808.01 275.76 C 798.47 275.92 789.29 273.20 780.15 270.87 C 782.98 273.71 785.65 276.74 788.76 279.29 C 791.82 281.85 795.70 282.99 799.34 284.45 C 786.72 290.58 772.21 288.83 759.12 285.30 C 738.74 279.75 718.60 273.24 697.93 268.79 C 650.24 257.72 601.11 255.45 552.32 254.57 C 533.55 254.12 514.76 254.08 495.98 254.00 C 477.69 253.55 459.16 254.95 441.70 260.76 C 431.28 264.30 420.86 269.15 413.30 277.37 C 409.76 281.19 406.99 286.48 408.14 291.83 C 409.11 296.48 413.07 299.79 417.17 301.75 C 424.94 305.21 433.58 306.06 442.00 306.08 C 453.01 306.07 464.14 305.96 474.94 303.58 C 478.51 302.67 482.41 301.75 484.99 298.91 C 486.84 296.91 486.91 293.75 485.42 291.52 C 483.05 287.94 479.16 285.86 475.78 283.38 C 488.11 280.86 500.93 283.54 512.11 289.00 C 517.66 291.59 522.94 294.72 528.28 297.73 C 528.90 290.45 527.92 282.64 522.90 276.97 C 535.44 277.69 548.34 278.74 559.91 284.05 C 565.49 286.43 570.35 290.11 575.19 293.71 C 575.39 289.38 575.33 284.78 572.89 281.01 C 570.74 277.51 567.75 274.65 564.96 271.68 C 573.39 271.50 581.89 272.38 589.99 274.80 C 601.18 277.87 612.11 283.37 624.01 282.45 C 646.29 281.16 668.04 275.77 690.00 272.24 C 695.56 272.87 700.95 274.58 706.43 275.69 C 663.34 283.68 620.19 291.34 577.04 298.96 C 549.46 303.68 521.84 308.15 494.09 311.79 C 473.17 314.21 452.08 317.01 430.98 315.51 C 421.69 314.74 411.91 313.39 404.06 307.96 C 398.75 304.42 395.63 298.28 394.96 292.03 C 393.41 279.73 396.18 267.08 392.85 254.97 C 391.88 251.02 389.89 247.47 387.84 244.01 C 393.27 245.52 398.26 248.92 400.74 254.12 C 404.06 260.07 404.75 266.97 405.54 273.61 C 421.17 259.67 441.19 250.78 462.06 248.80 C 488.29 246.26 514.69 247.07 540.98 248.00 C 590.75 249.98 640.39 254.35 690.08 257.73 C 702.04 258.49 714.00 259.40 725.99 259.21 C 744.72 258.92 763.24 254.52 780.59 247.55 C 798.61 240.27 815.40 230.37 832.91 222.00 Z"/>
<path fill="#041d65" d=" M 521.19 232.90 C 525.02 226.74 531.33 222.48 538.39 220.94 C 538.90 223.42 539.40 225.90 539.86 228.39 C 533.52 229.39 527.44 231.50 521.19 232.90 Z"/>
<path fill="#041d65" d=" M 71.05 222.36 C 73.88 223.23 76.76 223.95 79.67 224.53 C 76.59 227.72 73.37 230.77 70.08 233.75 C 69.75 233.61 69.09 233.33 68.75 233.19 C 69.90 229.67 70.66 226.04 71.05 222.36 Z"/>
<path fill="#041d65" d=" M 1098.06 231.10 C 1098.46 227.63 1102.35 226.86 1105.00 225.69 C 1107.95 229.63 1112.09 232.30 1116.22 234.86 C 1110.03 236.13 1102.20 237.05 1098.06 231.10 Z"/>
<path fill="#ce142c" d=" M 553.96 235.15 C 564.51 235.85 575.20 233.00 584.16 227.45 C 584.99 231.55 587.97 234.40 590.76 237.26 C 590.44 240.16 589.13 242.82 588.13 245.53 C 563.66 244.05 539.18 242.82 514.67 242.32 C 522.90 237.15 532.34 233.91 542.02 233.03 C 546.15 232.61 549.87 235.01 553.96 235.15 Z"/>
<path fill="#041d65" d=" M 1047.15 228.63 C 1049.16 230.23 1051.53 231.29 1053.98 232.07 L 1055.06 232.44 C 1050.36 237.49 1046.45 243.17 1042.31 248.66 C 1041.33 244.90 1040.31 240.85 1041.57 237.02 C 1042.47 233.69 1044.93 231.15 1047.15 228.63 Z"/>
<path fill="#041d65" d=" M 595.13 239.04 C 598.39 239.55 601.67 239.98 604.96 240.35 C 602.78 242.31 600.79 244.56 598.23 246.02 C 596.58 246.40 594.88 246.36 593.22 246.50 C 593.78 243.99 594.42 241.51 595.13 239.04 Z"/>
<path fill="#041d65" d=" M 113.12 243.33 C 119.32 242.86 125.48 245.19 129.83 249.63 C 127.50 250.58 125.21 253.20 122.57 252.59 C 119.77 249.15 116.58 246.09 113.12 243.33 Z"/>
<path fill="#041d65" d=" M 158.76 249.67 C 158.99 249.58 159.44 249.41 159.66 249.32 C 162.58 252.40 163.63 256.67 163.20 260.82 C 161.23 260.55 159.25 260.26 157.28 259.99 C 157.71 256.54 157.87 253.03 158.76 249.67 Z"/>
<path fill="#f1db18" d=" M 293.22 252.14 C 294.61 250.38 297.14 249.16 299.03 250.97 C 304.43 256.68 304.99 265.01 306.66 272.32 C 309.81 265.54 312.71 258.43 317.82 252.84 C 319.23 251.32 320.87 249.70 323.09 249.64 C 324.68 250.97 325.35 253.02 325.75 254.98 C 327.15 261.98 326.66 269.15 326.66 276.23 C 330.90 271.45 334.79 265.03 341.66 264.02 C 342.97 269.80 340.96 275.54 339.20 280.99 C 340.15 281.61 341.11 282.24 342.07 282.87 C 344.63 281.02 347.19 277.92 350.65 278.40 C 352.07 280.22 351.60 282.70 351.40 284.83 C 350.05 292.68 346.19 299.76 342.73 306.83 C 345.44 305.81 348.09 304.10 351.08 304.26 C 353.94 304.67 355.14 307.75 355.81 310.20 C 357.18 317.45 355.76 325.99 350.00 331.06 C 347.11 333.68 343.02 333.40 339.42 332.99 C 341.67 342.14 342.65 351.90 340.31 361.13 C 339.24 364.14 337.82 368.35 334.02 368.51 C 329.96 368.09 327.59 364.53 325.02 361.83 C 323.95 362.57 322.97 363.43 321.97 364.26 C 326.20 369.27 325.77 376.60 323.42 382.36 C 321.50 386.71 318.65 391.06 314.28 393.25 C 311.58 394.65 308.02 394.26 305.89 392.01 C 303.38 389.47 302.25 385.97 300.72 382.83 C 296.92 389.15 293.50 395.91 288.00 400.95 C 285.52 403.22 281.48 404.88 278.54 402.47 C 273.44 398.34 271.01 391.96 268.62 386.05 C 274.95 380.10 283.31 377.27 290.29 372.27 C 295.11 374.74 299.40 378.08 303.75 381.28 C 301.58 373.34 300.89 364.48 304.92 356.99 C 307.44 350.99 313.17 347.13 315.40 340.97 C 318.74 343.69 322.42 346.89 327.06 346.50 C 332.34 346.03 335.66 341.33 338.29 337.24 C 337.24 336.66 336.19 336.09 335.14 335.53 C 332.74 338.58 330.42 343.15 325.93 342.96 C 320.69 342.03 317.43 337.44 313.86 333.95 C 312.45 337.55 311.95 342.03 308.51 344.38 C 307.04 345.48 305.14 346.69 303.25 345.89 C 298.82 343.98 295.92 339.90 292.99 336.26 C 298.66 333.17 303.99 329.27 307.83 324.01 C 305.76 320.88 303.45 317.70 300.01 316.00 C 295.11 313.25 289.25 314.34 284.07 315.55 C 285.90 318.13 288.18 320.64 288.70 323.88 C 289.31 327.81 288.89 331.81 288.84 335.76 C 283.39 337.80 277.34 338.92 271.61 337.51 C 264.86 334.58 264.98 325.93 264.98 319.71 C 260.97 319.64 256.97 319.64 252.96 319.68 C 253.00 320.59 253.07 322.40 253.11 323.30 C 255.81 323.28 258.51 323.30 261.22 323.36 C 261.65 329.71 263.06 336.89 268.95 340.47 C 267.62 346.37 267.07 352.62 263.98 357.96 C 261.85 361.85 258.31 364.63 255.15 367.64 C 260.32 367.06 265.52 366.73 270.73 366.83 C 269.64 372.35 269.03 377.98 267.56 383.42 C 265.44 387.65 263.14 392.41 258.63 394.53 C 254.69 396.42 249.99 394.83 246.98 391.96 C 243.26 388.35 240.80 383.16 241.38 377.89 C 241.48 374.41 243.60 371.51 245.53 368.79 C 244.70 367.95 243.89 367.13 243.07 366.31 C 240.46 368.23 237.36 372.16 233.80 370.24 C 231.66 368.04 231.91 364.76 231.99 361.94 C 232.55 352.98 237.55 344.84 244.12 338.93 C 243.68 337.96 243.24 337.00 242.81 336.04 C 240.63 336.18 238.46 336.27 236.28 336.17 C 235.34 330.26 238.57 324.57 242.89 320.78 C 244.68 319.06 247.26 319.02 249.60 319.01 C 250.30 314.97 250.12 310.71 251.94 306.94 C 249.18 305.67 246.18 304.19 244.88 301.24 C 241.47 294.43 243.00 285.99 246.67 279.59 C 248.46 276.53 251.24 273.42 255.03 273.26 C 259.69 273.56 262.47 277.84 265.30 280.99 C 266.55 274.28 267.61 267.45 270.19 261.09 C 271.01 259.53 271.88 257.15 274.07 257.35 C 279.01 261.29 280.83 267.64 283.70 273.03 C 286.23 265.84 288.06 258.00 293.22 252.14 Z"/>
<path fill="#f1db18" d=" M 125.90 255.89 C 129.93 253.03 135.80 250.52 140.38 253.62 C 144.50 256.76 144.37 262.40 144.93 267.04 C 149.23 276.36 149.47 286.98 148.64 297.04 C 149.51 297.13 151.24 297.30 152.11 297.39 C 153.80 286.67 151.94 275.81 148.90 265.51 C 153.19 263.89 158.04 262.59 162.45 264.55 C 166.32 265.96 168.92 270.53 167.26 274.50 C 164.65 281.01 156.99 283.61 154.34 290.14 C 149.93 299.37 152.39 309.98 156.02 319.03 C 160.64 329.96 167.24 340.09 175.37 348.74 C 192.00 365.06 215.02 373.30 237.90 375.49 C 237.81 377.22 237.72 378.95 237.64 380.68 C 219.05 384.95 200.04 387.41 180.97 387.74 C 170.25 388.03 159.58 387.04 148.90 386.37 C 160.34 386.50 170.30 378.60 174.93 368.51 C 164.70 372.05 154.00 376.92 142.94 374.92 C 137.37 374.03 133.18 369.99 130.00 365.61 C 134.66 364.47 139.57 363.54 143.50 360.60 C 146.77 358.33 148.83 354.84 150.82 351.48 C 141.46 353.10 131.22 356.05 122.17 351.64 C 117.17 349.04 115.48 343.08 115.52 337.82 C 121.92 338.55 128.89 337.23 133.32 332.21 C 135.35 331.03 132.91 329.56 132.27 328.30 C 129.94 328.90 126.92 330.05 125.09 327.77 C 124.74 324.67 128.13 323.73 130.25 322.52 C 129.77 321.27 129.29 320.03 128.81 318.79 C 124.60 320.91 119.87 323.50 115.03 321.98 C 111.11 320.96 109.06 316.85 108.30 313.18 C 107.79 309.76 107.59 306.09 108.77 302.78 C 109.59 300.27 112.75 298.41 115.24 299.69 C 118.27 301.18 120.62 303.70 123.16 305.87 C 123.95 304.94 124.75 304.02 125.55 303.10 C 122.65 300.72 120.05 297.81 116.56 296.27 C 114.09 295.21 111.39 295.97 108.93 296.62 C 104.27 294.74 98.99 290.56 100.28 284.89 C 102.41 276.98 110.99 271.37 119.05 272.08 C 125.09 274.70 127.32 282.21 126.01 288.31 C 127.11 288.73 128.21 289.16 129.30 289.58 C 131.20 282.85 129.13 274.97 123.52 270.60 C 122.14 269.22 119.76 268.26 119.87 265.97 C 119.52 261.73 122.91 258.41 125.90 255.89 Z"/>
<path fill="#ce142c" d=" M 458.82 261.31 C 475.37 258.10 492.28 259.15 509.04 259.00 C 534.42 258.90 559.81 259.52 585.18 260.33 C 608.86 261.38 632.56 262.83 656.05 266.10 C 663.48 267.05 670.81 268.64 678.25 269.56 C 659.85 272.44 641.60 276.84 622.93 277.56 C 611.69 278.28 601.54 272.73 590.91 270.08 C 578.63 266.34 565.60 266.20 552.94 267.65 C 558.13 272.55 563.83 276.97 568.26 282.63 C 550.10 272.72 528.93 271.81 508.72 271.77 C 511.55 274.51 514.95 276.53 517.96 279.06 C 520.96 281.60 522.38 285.40 523.59 289.02 C 512.35 283.58 500.69 278.00 487.96 277.59 C 479.37 277.17 470.81 279.20 463.09 282.93 C 469.67 286.54 477.79 288.72 482.04 295.39 C 478.66 297.51 474.90 299.03 470.94 299.56 C 458.38 301.38 445.62 301.35 432.98 300.77 C 426.43 299.90 418.94 298.82 414.31 293.64 C 410.53 289.13 414.34 283.25 417.65 279.71 C 428.88 269.23 444.01 264.18 458.82 261.31 Z"/>
<path fill="#f1db18" d=" M 873.36 264.73 C 877.98 263.34 882.27 260.85 887.03 260.00 C 896.52 261.82 905.84 265.57 913.49 271.55 C 920.37 277.02 924.12 285.37 925.94 293.78 C 939.55 287.69 953.99 283.06 968.98 282.32 C 975.22 281.85 981.48 282.20 987.73 282.43 C 978.24 284.66 968.76 287.01 959.57 290.30 C 940.53 297.01 921.90 305.16 902.12 309.55 C 871.33 316.66 839.23 316.03 808.13 311.34 C 807.53 312.93 806.99 314.53 806.49 316.15 C 822.75 323.66 839.41 330.56 856.95 334.46 C 878.83 339.72 901.89 340.42 923.90 335.50 C 939.34 332.29 953.93 326.16 969.01 321.73 C 978.61 318.98 990.29 318.72 998.03 326.00 C 1002.77 330.66 1009.33 334.22 1016.16 332.60 C 1022.77 331.35 1026.50 325.24 1030.47 320.44 C 1034.79 314.85 1041.09 310.73 1048.09 309.49 C 1053.55 308.52 1059.15 308.51 1064.66 309.15 C 1059.45 316.80 1053.49 323.85 1046.87 330.30 C 1065.26 327.80 1085.70 326.20 1102.04 336.77 C 1094.96 338.14 1087.19 339.58 1082.11 345.18 C 1078.75 349.07 1075.91 353.38 1072.45 357.19 C 1081.27 355.89 1090.46 355.06 1099.14 357.65 C 1103.03 358.72 1106.94 360.49 1109.40 363.83 C 1103.55 365.69 1097.22 365.36 1091.42 367.56 C 1091.72 369.14 1092.02 370.73 1092.34 372.32 C 1097.15 371.11 1102.07 369.42 1107.11 370.11 C 1111.05 371.65 1112.91 375.83 1114.55 379.44 C 1113.77 379.47 1112.22 379.52 1111.44 379.55 C 1111.40 380.44 1111.33 382.22 1111.29 383.11 L 1111.83 384.40 C 1112.64 386.35 1113.28 388.37 1113.76 390.44 C 1109.56 396.84 1099.71 397.60 1093.90 393.08 C 1090.81 389.80 1090.92 384.89 1089.75 380.76 C 1088.21 381.18 1086.68 381.60 1085.16 382.02 C 1086.22 387.03 1086.50 392.84 1090.53 396.54 C 1094.37 400.31 1100.08 400.22 1105.02 401.19 C 1106.90 404.33 1107.32 408.07 1107.59 411.65 C 1101.58 412.50 1094.91 414.86 1092.84 421.20 C 1090.80 419.98 1088.51 418.91 1087.17 416.86 C 1085.52 414.76 1085.78 411.95 1085.23 409.48 C 1083.94 401.20 1076.11 395.53 1076.15 386.84 C 1074.57 386.89 1073.01 386.93 1071.46 386.97 C 1071.59 391.75 1072.98 396.44 1075.72 400.38 C 1078.17 403.91 1080.11 407.79 1081.04 412.01 C 1077.28 418.54 1073.40 425.87 1066.29 429.24 C 1063.25 430.81 1059.81 429.74 1056.77 428.80 C 1057.44 427.92 1058.12 427.05 1058.81 426.18 C 1057.78 425.24 1056.78 424.32 1055.76 423.40 C 1055.16 423.31 1053.95 423.13 1053.34 423.04 C 1051.20 422.09 1049.09 421.06 1047.19 419.70 C 1046.26 418.06 1042.89 416.02 1045.10 414.22 C 1050.99 407.93 1056.42 400.05 1055.57 390.99 C 1053.98 391.24 1052.40 391.52 1050.84 391.81 C 1051.12 397.26 1048.67 402.31 1045.32 406.45 C 1043.24 409.16 1040.46 411.39 1039.20 414.65 C 1033.75 415.44 1028.20 414.93 1023.02 413.10 C 1023.83 412.40 1024.65 411.71 1025.49 411.03 C 1024.36 409.68 1023.44 407.86 1021.48 407.71 C 1018.33 406.82 1015.26 405.64 1012.39 404.09 C 1010.78 402.81 1012.06 400.33 1013.10 399.06 C 1016.69 395.08 1022.10 393.55 1027.07 392.09 C 1035.92 389.68 1045.10 388.94 1054.21 388.15 C 1050.04 376.94 1041.88 367.04 1030.84 362.09 C 1014.32 354.66 995.79 354.07 977.97 354.01 C 934.82 354.91 892.14 362.74 848.99 363.61 C 829.32 363.85 809.37 362.84 790.36 357.43 C 771.95 352.09 754.31 341.81 743.16 325.88 C 735.69 316.09 722.47 314.14 710.94 314.29 C 710.98 315.91 711.01 317.53 711.07 319.16 C 721.02 318.92 732.23 320.39 739.10 328.41 C 733.55 333.94 725.77 336.68 718.01 336.72 C 696.70 337.08 676.31 328.88 655.01 329.00 C 627.33 329.17 599.73 333.40 573.12 340.96 C 536.13 351.14 501.39 367.68 465.93 382.04 C 444.29 390.67 422.10 398.44 398.99 401.93 C 371.69 406.33 343.35 404.38 317.00 395.96 C 325.23 390.52 329.56 380.28 328.75 370.58 C 331.44 371.78 334.76 372.87 337.53 371.27 C 341.32 369.25 343.01 364.98 344.00 361.04 C 345.96 353.44 345.43 345.47 344.27 337.79 C 374.47 344.12 405.58 341.37 436.04 338.81 C 483.58 334.01 530.80 326.62 578.09 319.90 C 626.21 313.05 674.44 306.59 722.94 303.05 C 746.57 301.42 770.27 300.25 793.96 300.74 C 820.58 301.69 847.16 304.61 873.83 303.80 C 883.43 303.30 893.27 302.74 902.35 299.27 C 907.07 297.44 911.64 293.44 911.65 287.99 C 911.57 281.57 906.54 276.66 901.30 273.72 C 892.67 268.95 882.97 266.57 873.36 264.73 Z"/>
<path fill="#041d65" d=" M 88.27 268.29 C 93.56 266.79 99.49 266.88 104.49 269.35 C 105.34 269.84 106.51 270.21 106.78 271.28 C 104.56 273.32 102.13 275.13 99.90 277.16 C 96.54 273.81 92.61 271.17 88.39 269.05 C 88.36 268.86 88.30 268.48 88.27 268.29 Z"/>
<path fill="#1b0c09" d=" M 266.37 278.81 C 271.54 283.71 276.86 289.02 283.93 291.00 C 289.05 292.73 294.51 291.96 299.73 291.21 C 296.48 298.46 291.70 306.14 283.62 308.52 C 278.16 310.19 272.29 307.21 269.56 302.39 C 265.58 295.24 265.62 286.74 266.37 278.81 Z"/>
<path fill="#1b0c09" d=" M 250.27 284.41 C 250.96 282.28 253.29 280.53 255.58 281.34 C 257.69 282.28 259.08 284.23 260.61 285.88 C 259.58 286.63 258.57 287.38 257.54 288.12 C 256.52 286.87 255.49 285.63 254.44 284.41 C 251.64 288.96 253.26 294.70 255.92 298.93 C 254.90 299.61 253.87 300.28 252.85 300.97 C 249.84 296.11 248.29 289.95 250.27 284.41 Z"/>
<path fill="#f1db18" d=" M 269.57 286.95 C 272.20 288.90 274.88 290.80 277.75 292.39 C 275.70 296.55 276.29 301.15 277.83 305.37 C 271.21 301.83 269.65 293.81 269.57 286.95 Z"/>
<path fill="#1b0c09" d=" M 314.50 292.74 C 317.94 297.47 321.00 302.66 325.79 306.20 C 331.18 310.47 338.28 312.01 345.06 311.35 C 347.80 310.91 349.56 313.48 349.55 315.97 C 349.42 321.33 346.67 326.25 343.09 330.11 C 342.17 329.33 341.25 328.55 340.34 327.78 C 343.66 324.18 346.07 319.67 346.13 314.68 C 340.56 315.20 337.59 320.43 332.99 322.87 C 328.23 325.76 321.50 326.50 316.95 322.83 C 314.11 320.74 312.79 317.28 312.02 313.97 C 310.55 306.82 312.41 299.56 314.50 292.74 Z"/>
<path fill="#f1db18" d=" M 283.92 294.89 C 287.00 295.42 290.12 295.70 293.24 295.91 C 290.57 299.99 287.14 303.76 282.35 305.30 C 284.11 302.10 284.48 298.46 283.92 294.89 Z"/>
<path fill="#f1db18" d=" M 315.30 313.77 C 315.02 309.62 315.09 305.44 315.92 301.35 C 317.75 303.46 319.63 305.54 321.68 307.46 C 318.94 308.86 316.85 311.14 315.30 313.77 Z"/>
<path fill="#041d65" d=" M 91.20 318.34 C 93.68 312.76 98.30 308.46 103.77 305.85 C 104.18 309.46 104.72 313.06 105.60 316.59 C 100.81 317.21 96.00 317.72 91.20 318.34 Z"/>
<path fill="#f1db18" d=" M 318.87 319.91 C 322.22 317.75 324.85 314.63 325.81 310.70 C 329.35 312.75 333.22 314.10 337.21 315.01 C 332.73 319.84 325.13 324.20 318.87 319.91 Z"/>
<path fill="#041d65" d=" M 60.91 328.00 C 66.29 328.64 72.19 330.66 74.74 335.87 C 72.81 336.63 70.88 337.38 68.95 338.13 C 66.35 334.68 63.58 331.38 60.91 328.00 Z"/>
<path fill="#f1db18" d=" M 715.96 341.61 C 725.33 341.73 734.99 338.99 741.94 332.47 C 743.14 333.81 744.35 335.15 745.58 336.48 C 741.94 338.86 738.18 341.29 735.59 344.86 C 732.06 349.81 732.79 357.50 737.70 361.29 C 745.50 367.54 756.87 366.08 764.56 372.48 C 768.20 377.12 766.47 385.19 761.22 387.99 C 754.08 392.00 745.02 391.25 738.41 396.38 C 732.28 400.97 730.07 408.66 725.46 414.48 C 722.55 418.13 718.20 420.19 713.83 421.52 C 714.32 417.67 715.10 413.78 714.48 409.90 C 713.67 403.81 710.51 398.36 706.72 393.64 C 704.29 403.78 703.28 414.97 696.41 423.32 C 691.18 429.39 682.87 431.25 675.21 431.66 C 678.05 426.01 680.76 420.23 682.10 414.02 C 683.78 407.26 683.35 400.21 682.69 393.35 C 673.96 405.46 665.00 418.11 652.14 426.19 C 647.59 429.15 642.47 431.18 637.15 432.26 C 641.59 421.73 642.63 410.24 642.10 398.93 C 635.77 404.79 633.03 414.75 624.11 417.46 C 622.60 414.96 621.84 412.16 621.56 409.29 C 619.97 409.29 618.38 409.29 616.80 409.30 C 616.93 413.54 618.27 417.65 620.91 421.00 C 614.80 426.52 605.85 427.39 598.10 425.61 C 594.96 424.71 591.47 423.29 589.99 420.15 C 588.54 417.47 589.14 414.11 590.67 411.61 C 593.04 409.25 596.44 408.43 599.50 407.32 C 599.18 405.77 598.87 404.24 598.56 402.71 C 594.94 403.66 591.23 404.83 588.31 407.26 C 585.72 409.34 584.18 412.49 581.33 414.27 C 573.06 419.74 562.82 422.27 552.96 421.15 C 549.29 420.65 545.12 418.97 543.74 415.23 C 542.48 411.50 543.90 407.62 545.10 404.08 C 558.02 403.72 570.96 403.91 583.89 403.75 C 583.89 402.14 583.90 400.54 583.93 398.95 C 569.61 398.93 555.29 399.08 540.97 398.96 C 535.92 398.82 530.49 397.88 526.55 394.46 C 522.36 390.63 523.64 383.27 528.09 380.21 C 534.81 379.29 540.81 382.92 547.10 384.50 C 557.20 386.25 567.52 385.66 577.68 384.91 C 577.57 383.30 577.46 381.70 577.35 380.10 C 568.89 380.72 560.38 381.16 551.91 380.33 C 552.69 376.37 553.94 372.05 557.39 369.59 C 560.61 367.13 565.15 367.68 568.58 369.39 C 575.39 372.72 580.16 378.86 584.45 384.91 C 604.02 384.77 623.69 384.27 643.03 381.01 C 657.75 378.41 672.47 374.31 685.27 366.36 C 675.46 362.60 664.33 358.94 658.39 349.61 C 655.19 345.01 654.93 339.30 654.76 333.90 C 675.48 333.66 695.29 341.40 715.96 341.61 Z"/>
<path fill="#ce142c" d=" M 572.89 345.90 C 597.92 338.93 623.77 334.41 649.78 334.11 C 650.06 341.33 651.16 349.05 656.07 354.73 C 660.48 360.46 667.04 363.64 673.12 367.22 C 655.87 375.13 636.75 377.64 617.98 378.94 C 607.68 379.47 597.33 380.42 587.02 379.77 C 581.53 373.34 575.85 366.06 567.29 363.78 C 560.66 362.11 553.97 359.92 547.05 360.28 C 540.51 360.69 534.12 362.47 528.10 365.01 C 528.47 366.54 528.80 368.10 529.36 369.59 C 535.79 370.38 542.08 372.13 547.72 375.39 C 547.57 376.76 547.43 378.13 547.29 379.51 C 541.62 377.78 536.07 375.03 530.01 375.29 C 522.79 375.61 515.30 373.62 508.37 376.54 C 498.11 380.11 492.80 390.52 489.12 400.00 C 494.10 398.00 498.89 395.35 504.21 394.33 C 509.40 393.63 514.65 394.00 519.86 394.24 C 521.82 396.54 523.77 398.98 526.47 400.45 C 530.48 402.69 535.14 403.21 539.62 403.81 C 539.58 404.70 539.55 405.60 539.53 406.50 C 534.95 407.95 530.13 409.11 526.20 412.01 C 521.57 415.49 517.70 419.98 515.05 425.14 C 513.63 427.73 512.72 430.59 511.12 433.08 C 504.08 433.57 497.02 433.00 489.98 433.32 C 476.66 433.94 463.20 433.88 450.11 436.76 C 435.39 439.86 421.41 446.16 409.32 455.11 C 407.62 447.50 404.81 439.54 398.30 434.72 C 391.16 428.99 381.54 430.02 373.06 428.38 C 377.69 432.86 383.75 436.24 386.33 442.46 C 393.22 457.15 386.77 473.94 391.35 489.14 C 393.43 497.17 400.00 503.44 407.55 506.48 C 419.09 511.13 431.70 511.79 443.99 511.93 C 471.85 511.23 499.45 507.06 526.97 503.04 C 589.82 493.28 652.29 481.24 714.92 470.21 C 717.27 469.85 719.68 470.14 721.97 470.79 C 730.98 473.20 739.85 476.07 748.86 478.50 C 761.52 482.17 774.73 485.84 788.02 483.85 C 797.46 482.55 805.93 477.87 813.83 472.81 C 813.81 472.52 813.77 471.94 813.75 471.65 C 828.48 470.54 842.84 466.72 856.76 461.92 C 860.45 460.65 864.21 458.62 868.23 459.64 C 879.89 461.76 892.07 464.10 901.96 471.05 C 905.29 473.30 908.11 477.88 905.92 481.82 C 902.63 485.90 897.07 487.11 892.19 488.14 C 871.44 491.44 850.35 489.76 829.49 488.79 C 820.67 488.18 811.83 487.88 803.01 487.18 C 777.00 486.01 750.96 487.34 725.01 488.99 C 675.20 492.58 625.67 499.24 576.25 506.28 C 525.57 513.42 474.97 521.49 423.97 525.99 C 400.04 527.73 375.84 529.13 352.02 525.42 C 359.53 518.42 362.17 506.53 358.23 497.05 C 356.94 493.61 353.48 491.92 350.10 491.24 C 352.83 485.16 355.35 478.71 355.26 471.94 C 355.22 469.37 353.86 466.31 351.09 465.78 C 348.89 465.47 346.77 466.37 344.69 466.92 C 345.51 462.31 347.31 456.34 343.67 452.54 C 338.79 449.64 334.22 454.20 330.44 456.81 C 330.20 451.22 330.11 445.41 327.67 440.26 C 326.14 437.20 321.84 436.18 319.03 438.05 C 313.99 441.27 310.95 446.63 308.01 451.67 C 306.26 446.77 304.71 440.97 299.85 438.24 C 296.44 436.18 292.43 438.33 290.07 440.96 C 286.79 444.72 285.10 449.53 283.07 454.01 C 281.15 450.73 279.24 447.11 275.75 445.28 C 273.00 443.55 269.60 445.65 268.13 448.11 C 265.33 452.84 264.18 458.30 263.14 463.64 C 259.65 461.63 255.45 459.46 251.41 461.32 C 244.05 464.46 240.76 472.72 239.67 480.13 C 238.39 487.46 240.69 495.60 247.02 499.97 C 246.85 501.84 246.79 503.75 246.37 505.60 C 243.25 507.65 239.40 508.91 237.27 512.19 C 234.51 516.20 231.93 520.94 232.58 525.98 C 232.58 528.70 235.28 529.98 237.05 531.55 C 230.88 540.02 225.86 551.15 229.53 561.66 C 213.04 558.97 196.92 552.78 183.82 542.27 C 176.50 536.83 171.17 529.29 166.27 521.73 C 160.35 512.25 155.09 501.48 155.76 490.02 C 155.94 484.30 159.21 479.13 163.65 475.71 C 167.68 472.64 171.16 468.26 171.37 463.00 C 171.60 459.97 169.92 457.34 168.21 455.01 C 168.00 450.28 168.10 445.33 165.91 441.01 C 164.35 437.90 161.37 435.89 158.36 434.36 C 169.72 433.90 181.28 429.09 187.81 419.43 C 189.02 424.96 187.01 430.37 186.17 435.79 C 194.75 435.91 203.75 434.04 210.55 428.51 C 214.39 425.51 217.50 421.74 220.56 417.98 C 222.53 423.89 220.81 429.90 218.95 435.57 C 227.91 436.81 237.32 435.79 245.30 431.32 C 249.72 428.98 253.49 425.63 256.92 422.04 C 257.15 425.61 257.21 429.19 257.24 432.77 C 265.11 432.14 273.66 431.37 279.97 426.08 C 282.74 423.77 284.78 420.76 286.83 417.84 C 294.36 422.47 303.29 423.68 311.97 422.96 C 312.20 415.52 312.78 407.98 311.08 400.66 C 310.65 400.43 309.79 399.96 309.35 399.72 C 309.46 399.42 309.67 398.82 309.78 398.51 L 310.17 399.56 C 316.23 400.60 322.01 402.78 328.01 404.07 C 350.85 409.62 374.76 410.58 398.00 407.02 C 436.76 401.20 472.57 384.50 508.44 369.58 C 529.49 360.57 550.93 352.41 572.89 345.90 Z"/>
<path fill="#041d65" d=" M 23.24 340.07 C 28.14 333.94 38.13 334.26 43.91 338.95 C 41.72 340.97 39.51 342.98 37.30 344.98 C 32.72 343.03 27.85 341.93 23.24 340.07 Z"/>
<path fill="#f1db18" d=" M 64.86 345.36 C 68.89 342.30 73.60 338.72 78.95 339.49 C 82.76 340.84 82.89 345.67 83.06 349.06 C 83.23 357.07 87.04 364.71 92.84 370.14 C 104.67 381.40 120.91 387.14 137.03 388.14 C 170.59 393.65 205.16 391.85 238.26 384.32 C 240.40 391.42 246.12 398.30 253.91 398.96 C 259.28 399.55 263.87 395.98 267.02 392.01 C 269.40 396.94 271.97 402.08 276.48 405.41 C 279.61 407.93 284.30 407.72 287.59 405.63 C 293.22 402.13 296.88 396.40 300.25 390.86 C 302.58 393.90 305.99 396.29 307.03 400.16 C 308.96 406.37 308.79 412.98 308.36 419.40 C 299.97 420.12 291.98 417.02 285.14 412.40 C 282.98 416.64 280.70 421.07 276.78 423.96 C 272.22 427.19 266.55 428.02 261.14 428.75 C 261.08 423.31 259.87 417.99 258.79 412.69 C 254.62 419.38 249.31 425.74 241.89 428.92 C 236.33 431.58 230.14 432.58 224.01 432.37 C 226.65 424.72 224.51 416.70 220.90 409.78 C 217.20 416.15 213.00 422.54 206.81 426.77 C 202.07 429.98 196.41 431.38 190.79 432.09 C 191.43 428.39 192.38 424.64 191.86 420.87 C 191.43 417.39 190.03 414.14 188.63 410.95 C 185.39 416.39 181.94 422.06 176.41 425.44 C 169.85 429.58 161.95 430.36 154.45 431.40 C 157.67 425.23 159.09 418.02 156.58 411.33 C 151.74 414.64 147.01 418.19 141.68 420.71 C 133.02 424.84 123.12 426.73 113.60 424.98 C 120.22 420.71 125.52 414.30 127.16 406.46 C 119.07 410.82 109.59 415.03 100.27 412.54 C 95.94 411.29 95.42 406.06 96.71 402.40 C 95.55 401.95 94.40 401.52 93.24 401.08 C 91.81 404.94 89.92 409.21 85.88 410.93 C 78.35 414.58 68.11 409.33 66.92 401.00 C 71.91 398.79 77.47 398.58 82.81 397.89 C 82.76 396.68 82.72 395.48 82.67 394.29 C 76.13 394.81 69.60 395.83 63.41 398.09 C 55.13 400.98 44.66 396.76 41.67 388.28 C 39.53 381.98 41.11 375.18 43.58 369.23 C 59.71 370.89 69.63 386.73 85.55 389.03 C 85.67 387.83 85.80 386.64 85.92 385.45 C 70.45 382.77 60.67 367.44 44.87 365.80 C 39.81 365.39 37.51 359.33 38.05 354.91 C 38.73 348.28 43.62 340.86 50.89 340.74 C 55.45 340.78 58.83 344.17 61.67 347.32 C 69.27 354.99 76.81 362.73 84.38 370.44 C 85.28 369.60 86.17 368.77 87.06 367.94 C 79.68 360.39 72.35 352.79 64.86 345.36 Z"/>
<path fill="#041d65" d=" M 276.63 342.31 C 281.20 342.11 285.73 341.21 289.95 339.38 C 293.40 343.34 297.39 346.78 301.68 349.80 C 299.00 356.01 296.08 362.38 291.03 367.06 C 285.65 372.04 278.75 374.84 272.45 378.43 C 273.84 366.41 277.55 354.51 276.63 342.31 Z"/>
<path fill="#ce142c" d=" M 265.40 362.66 C 271.04 357.40 271.30 349.19 272.68 342.11 C 273.19 348.97 271.69 355.71 271.34 362.53 C 269.35 362.55 267.37 362.59 265.40 362.66 Z"/>
<path fill="#ce142c" d=" M 294.56 369.16 C 296.44 367.59 297.86 365.61 298.56 363.26 C 298.27 365.97 298.14 368.69 298.06 371.42 C 297.70 371.40 296.97 371.38 296.61 371.36 C 296.15 371.03 295.23 370.37 294.77 370.03 C 294.71 369.82 294.61 369.38 294.56 369.16 Z"/>
<path fill="#041d65" d=" M 539.58 366.19 C 544.48 364.78 549.63 364.70 554.64 365.56 C 552.94 367.42 551.20 369.23 549.42 371.01 C 546.16 369.35 542.82 367.86 539.58 366.19 Z"/>
<path fill="#041d65" d=" M 21.00 383.71 C 26.19 380.40 31.46 377.02 37.48 375.44 C 37.41 378.04 37.33 380.65 37.24 383.25 C 31.82 382.88 26.41 383.39 21.00 383.71 Z"/>
<path fill="#041d65" d=" M 509.31 381.24 C 513.12 379.44 517.42 379.64 521.52 379.55 C 520.42 382.70 519.59 385.94 519.16 389.26 C 512.46 388.97 505.71 389.00 499.14 390.48 C 501.49 386.46 504.94 383.00 509.31 381.24 Z"/>
<path fill="#041d65" d=" M 1111.83 384.40 C 1118.64 384.05 1125.46 384.10 1132.28 384.20 C 1130.48 385.97 1128.77 388.06 1126.28 388.82 C 1122.22 390.06 1117.94 390.08 1113.76 390.44 C 1113.28 388.37 1112.64 386.35 1111.83 384.40 Z"/>
<path fill="#041d65" d=" M 1012.39 404.09 C 1015.26 405.64 1018.33 406.82 1021.48 407.71 C 1016.91 412.11 1011.45 415.60 1007.62 420.72 C 1006.35 422.46 1004.77 423.94 1002.84 424.91 C 1002.60 421.94 1002.19 418.94 1002.64 415.97 C 1003.87 411.53 1007.57 408.34 1011.49 406.21 C 1011.72 405.68 1012.16 404.62 1012.39 404.09 Z"/>
<path fill="#f1db18" d=" M 811.57 423.77 C 826.73 416.18 841.96 406.70 859.36 405.98 C 851.09 411.38 843.41 417.61 835.86 423.96 C 827.99 430.41 820.08 437.24 810.43 440.88 C 810.71 442.52 811.01 444.18 811.31 445.83 C 829.91 444.45 847.86 439.06 865.90 434.67 C 888.31 429.07 910.86 423.61 933.90 421.40 C 948.62 420.12 963.71 420.36 977.95 424.73 C 963.97 424.88 949.99 426.23 936.40 429.55 C 905.58 436.56 876.97 450.43 846.98 460.06 C 830.90 465.05 813.81 468.47 796.97 465.86 C 791.29 464.98 785.82 463.16 780.24 461.87 C 783.01 464.75 785.65 467.79 788.77 470.32 C 791.89 472.88 795.80 474.11 799.58 475.37 C 787.83 481.04 774.31 480.18 762.00 477.00 C 742.88 472.12 724.14 465.83 704.90 461.38 C 680.63 455.66 655.98 451.47 631.13 449.34 C 582.21 445.10 533.05 445.10 483.98 445.03 C 464.47 445.43 444.57 448.84 427.13 457.93 C 420.82 461.32 414.88 465.74 410.71 471.63 C 407.73 475.88 406.73 481.90 409.59 486.47 C 412.13 490.37 416.40 492.75 420.74 494.17 C 427.90 496.47 435.48 497.14 442.98 497.08 C 453.89 497.06 464.92 496.88 475.60 494.43 C 479.33 493.45 483.61 492.30 485.76 488.80 C 487.08 486.62 486.46 483.93 485.04 481.99 C 482.67 478.73 479.06 476.73 475.81 474.49 C 487.06 471.96 498.86 474.15 509.29 478.74 C 515.89 481.52 522.03 485.23 528.28 488.71 C 528.88 481.43 527.94 473.60 522.88 467.96 C 535.86 468.69 549.23 469.85 561.11 475.60 C 566.24 477.89 570.67 481.39 575.17 484.70 C 575.20 481.42 575.57 477.97 574.25 474.87 C 572.41 469.97 568.45 466.36 564.92 462.68 C 573.37 462.47 581.87 463.39 589.99 465.80 C 601.17 468.84 612.07 474.36 623.96 473.46 C 646.27 472.17 668.06 466.74 690.07 463.25 C 695.74 463.92 701.21 465.73 706.84 466.71 C 638.56 478.77 570.49 492.16 501.81 501.77 C 479.66 504.56 457.37 507.59 434.99 506.79 C 424.39 506.07 413.08 505.14 404.05 498.97 C 398.78 495.39 395.61 489.24 394.94 482.98 C 393.39 470.40 396.30 457.41 392.61 445.07 C 391.64 441.40 389.68 438.13 387.69 434.95 C 391.68 436.25 395.77 438.02 398.35 441.50 C 403.55 447.96 404.67 456.47 405.52 464.44 C 420.63 451.48 439.27 442.52 459.13 440.15 C 480.30 437.72 501.68 437.97 522.95 438.40 C 575.03 439.84 626.95 444.25 678.90 447.98 C 703.17 449.31 727.87 452.63 751.90 447.29 C 773.04 443.10 792.65 433.79 811.57 423.77 Z"/>
<path fill="#041d65" d=" M 521.36 424.08 C 524.90 418.10 530.99 413.37 537.87 412.09 C 539.22 414.31 539.44 416.96 539.89 419.47 C 533.52 420.22 527.50 422.38 521.36 424.08 Z"/>
<path fill="#041d65" d=" M 69.33 425.03 C 69.59 421.11 70.34 417.25 71.50 413.50 C 74.04 414.28 76.60 415.03 79.16 415.76 C 76.25 419.21 73.01 422.39 69.33 425.03 Z"/>
<path fill="#041d65" d=" M 1097.88 420.34 C 1100.14 418.99 1102.49 417.79 1104.91 416.73 C 1108.01 420.07 1111.29 423.46 1115.77 424.86 C 1115.61 425.21 1115.28 425.91 1115.11 426.26 C 1110.23 426.68 1104.69 427.76 1100.50 424.52 C 1098.87 423.70 1098.40 421.91 1097.88 420.34 Z"/>
<path fill="#ce142c" d=" M 554.00 426.13 C 564.54 426.87 575.23 424.00 584.17 418.43 C 585.11 422.44 587.82 425.48 590.72 428.24 C 590.45 431.13 589.15 433.79 588.18 436.50 C 563.50 435.06 538.80 433.83 514.07 433.30 C 522.72 428.63 532.03 424.81 541.91 423.98 C 546.09 423.58 549.86 425.99 554.00 426.13 Z"/>
<path fill="#041d65" d=" M 1047.19 419.70 C 1049.09 421.06 1051.20 422.09 1053.34 423.04 L 1054.73 423.68 C 1049.85 428.64 1046.38 434.67 1042.18 440.17 C 1041.30 436.08 1040.36 431.74 1041.69 427.64 C 1042.62 424.47 1045.03 422.08 1047.19 419.70 Z"/>
<path fill="#041d65" d=" M 595.44 429.99 C 598.62 430.53 601.82 430.97 605.04 431.34 C 601.76 434.42 598.17 438.57 593.12 436.98 C 593.85 434.63 594.63 432.30 595.44 429.99 Z"/>
<path fill="#041d65" d=" M 113.06 434.36 C 119.24 433.89 125.48 436.09 129.75 440.63 C 127.59 441.87 125.59 443.67 123.08 444.13 C 120.03 440.57 116.92 437.06 113.06 434.36 Z"/>
<path fill="#041d65" d=" M 158.90 439.49 C 162.07 442.76 163.73 447.22 163.07 451.80 C 161.06 451.45 159.05 451.11 157.05 450.76 C 157.79 447.03 158.35 443.26 158.90 439.49 Z"/>
<path fill="#f1db18" d=" M 290.64 446.59 C 292.05 444.38 293.65 441.99 296.23 441.04 C 298.68 440.78 300.13 442.99 301.25 444.80 C 304.55 450.40 305.26 457.00 306.67 463.23 C 309.99 456.31 312.86 448.92 318.28 443.30 C 319.60 441.88 321.41 441.09 323.12 440.24 C 324.20 442.00 325.40 443.79 325.77 445.87 C 327.12 452.94 326.73 460.18 326.62 467.34 C 329.71 463.57 332.71 459.56 336.76 456.76 C 338.28 455.83 340.27 454.44 341.89 455.96 C 342.82 461.50 340.83 466.90 339.15 472.09 C 340.19 472.65 341.24 473.22 342.30 473.79 C 344.57 471.94 346.82 469.49 349.92 469.25 C 351.92 469.71 351.57 472.36 351.60 473.93 C 350.75 482.53 346.40 490.22 342.70 497.87 C 346.05 496.66 350.22 493.53 353.51 496.51 C 356.06 499.32 356.33 503.39 356.28 507.00 C 356.10 512.68 354.22 518.84 349.57 522.44 C 346.70 524.73 342.87 524.28 339.47 524.01 C 341.67 533.21 342.66 543.01 340.26 552.28 C 339.24 555.26 337.70 559.23 334.06 559.54 C 330.00 559.07 327.59 555.57 325.01 552.85 C 323.94 553.58 322.95 554.43 321.94 555.26 C 325.85 559.69 325.73 566.14 324.11 571.49 C 322.52 576.21 319.70 580.70 315.55 583.57 C 312.89 585.44 309.01 585.71 306.46 583.50 C 303.58 580.95 302.30 577.18 300.75 573.78 C 296.93 580.11 293.49 586.87 288.01 591.97 C 285.51 594.23 281.43 595.88 278.50 593.41 C 273.41 589.31 271.00 582.90 268.62 577.02 C 275.14 571.28 283.22 567.85 290.60 563.43 C 295.36 565.72 299.40 569.21 303.69 572.26 C 301.78 564.49 300.82 555.94 304.64 548.58 C 307.17 542.33 313.02 538.26 315.45 531.98 C 318.94 534.94 323.09 538.29 328.01 537.39 C 332.77 536.42 335.70 532.10 338.30 528.37 C 337.27 527.73 336.24 527.09 335.22 526.46 C 332.80 529.51 330.47 534.04 326.00 533.95 C 320.73 533.14 317.58 528.40 313.88 525.09 C 312.34 528.58 311.96 533.03 308.56 535.36 C 307.04 536.48 305.04 537.76 303.11 536.83 C 298.72 534.91 295.87 530.83 292.95 527.22 C 298.69 524.21 303.99 520.23 307.84 514.95 C 305.77 511.84 303.43 508.72 300.02 507.00 C 295.10 504.29 289.21 505.27 284.04 506.62 C 285.92 509.15 288.17 511.65 288.70 514.88 C 289.32 518.82 288.91 522.82 288.81 526.79 C 282.95 528.85 276.08 530.43 270.17 527.83 C 264.78 524.00 265.04 516.52 264.97 510.61 C 260.97 510.66 256.96 510.65 252.96 510.65 C 252.99 511.56 253.06 513.38 253.09 514.28 C 255.80 514.28 258.50 514.30 261.21 514.36 C 261.65 520.70 263.04 527.90 268.96 531.43 C 267.65 537.37 267.02 543.65 263.96 549.03 C 261.83 552.84 258.30 555.52 255.29 558.58 C 260.42 558.12 265.57 557.73 270.73 557.82 C 269.57 563.39 269.11 569.14 267.47 574.60 C 265.38 578.77 263.04 583.43 258.62 585.53 C 254.93 587.34 250.48 585.99 247.50 583.43 C 243.51 579.80 240.83 574.47 241.33 568.99 C 241.45 565.46 243.53 562.50 245.56 559.79 C 244.71 558.94 243.87 558.09 243.02 557.25 C 240.92 559.13 238.76 561.21 235.93 561.89 C 233.40 562.00 232.16 559.27 232.06 557.12 C 231.04 546.67 236.60 536.65 244.18 529.82 C 243.64 528.85 243.10 527.89 242.56 526.93 C 240.55 526.94 238.21 528.09 236.43 526.70 C 235.16 521.46 238.41 516.42 241.81 512.74 C 243.75 510.50 246.74 509.79 249.59 510.05 C 250.30 506.00 250.19 501.74 251.89 497.91 C 248.83 496.63 245.77 494.80 244.52 491.55 C 241.51 484.37 243.24 475.80 247.39 469.42 C 249.32 466.42 252.82 463.43 256.64 464.51 C 260.75 465.58 262.60 469.86 266.09 471.92 C 265.74 479.81 265.86 488.50 270.79 495.11 C 273.98 499.46 280.05 501.12 285.04 499.06 C 292.37 496.17 296.63 489.03 299.72 482.18 C 291.87 483.89 283.24 483.27 276.53 478.51 C 272.44 476.27 269.93 471.91 265.59 470.13 C 266.92 463.83 267.83 457.33 270.51 451.43 C 271.32 449.83 272.93 447.00 274.88 449.00 C 279.22 453.08 281.08 458.97 283.70 464.17 C 285.64 458.18 287.44 452.06 290.64 446.59 Z"/>
<path fill="#f1db18" d=" M 126.41 446.50 C 130.49 443.75 136.60 441.44 140.88 445.04 C 145.27 448.86 143.77 455.23 145.85 460.10 C 149.20 469.09 149.42 478.87 148.68 488.34 C 150.12 488.34 151.53 487.95 152.69 487.11 C 153.23 476.74 151.97 466.39 148.90 456.48 C 153.04 455.05 157.62 453.59 161.91 455.38 C 166.32 456.56 169.14 461.88 167.05 466.10 C 164.06 472.25 156.70 474.92 154.23 481.47 C 152.17 487.34 151.17 493.80 152.85 499.91 C 156.40 514.71 164.69 528.04 174.85 539.20 C 191.48 555.87 214.77 564.29 237.88 566.47 C 237.77 568.20 237.67 569.94 237.59 571.69 C 214.80 576.89 191.35 579.49 167.96 578.58 C 161.58 578.38 155.24 577.62 148.86 577.41 C 160.16 577.48 170.05 569.84 174.75 559.89 C 164.39 562.80 153.90 568.07 142.87 565.91 C 137.38 564.96 132.96 561.08 130.18 556.39 C 134.86 555.57 139.68 554.46 143.55 551.55 C 146.76 549.24 148.87 545.81 150.86 542.48 C 141.73 544.05 131.88 546.85 122.93 543.00 C 117.48 540.68 115.34 534.32 115.56 528.79 C 121.95 529.64 128.87 528.16 133.31 523.21 C 135.31 522.07 133.03 520.60 132.39 519.36 C 130.08 519.75 126.91 521.17 125.22 518.76 C 124.40 515.63 128.24 514.77 130.24 513.57 C 129.78 512.29 129.32 511.02 128.86 509.76 C 124.10 512.32 118.16 515.14 112.95 512.10 C 107.82 508.20 107.27 500.91 108.36 495.03 C 108.75 491.96 112.30 489.14 115.29 490.72 C 118.32 492.27 120.69 494.77 123.34 496.86 C 124.07 495.93 124.80 495.00 125.53 494.08 C 122.44 491.59 119.74 488.37 115.90 487.03 C 113.56 486.21 111.14 487.08 108.85 487.62 C 104.32 485.72 99.20 481.76 100.21 476.21 C 102.21 468.12 110.90 462.31 119.11 463.10 C 125.22 465.88 127.20 473.38 126.09 479.57 C 126.93 479.78 128.60 480.20 129.43 480.41 C 131.12 473.64 129.03 465.86 123.42 461.50 C 122.11 460.14 119.80 459.21 119.88 457.02 C 119.52 452.54 123.16 449.04 126.41 446.50 Z"/>
<path fill="#ce142c" d=" M 426.77 463.80 C 443.10 454.20 462.26 450.67 480.98 450.04 C 527.33 449.81 573.74 450.06 619.99 453.27 C 632.03 454.28 644.07 455.40 656.04 457.10 C 663.44 458.06 670.75 459.66 678.16 460.54 C 659.81 463.46 641.60 467.78 622.97 468.59 C 610.92 469.26 600.09 463.07 588.62 460.49 C 577.01 457.13 564.76 457.48 552.86 458.63 C 558.14 463.44 563.79 467.92 568.28 473.54 C 549.89 463.66 528.50 462.83 508.10 462.76 C 514.40 467.18 522.35 471.56 523.26 480.10 C 512.83 474.67 501.82 469.58 489.92 468.73 C 481.05 467.92 472.03 469.67 463.99 473.46 C 464.05 473.73 464.18 474.26 464.25 474.52 C 470.47 477.64 477.18 480.18 481.99 485.47 C 480.09 488.56 476.32 489.27 473.07 490.09 C 462.52 492.26 451.69 492.06 440.97 492.08 C 432.81 492.04 424.12 491.48 417.03 487.04 C 414.10 485.20 411.57 481.48 413.09 477.97 C 415.37 471.54 421.23 467.31 426.77 463.80 Z"/>
<path fill="#f1db18" d=" M 873.40 455.62 C 878.03 454.33 882.30 451.88 887.03 451.00 C 896.51 452.86 905.90 456.52 913.52 462.58 C 920.39 468.04 924.14 476.37 925.94 484.78 C 944.99 475.96 966.22 471.19 987.23 473.73 C 959.49 478.81 934.39 492.55 907.13 499.33 C 874.85 507.66 840.91 507.31 808.14 502.33 C 807.53 503.91 806.98 505.51 806.47 507.13 C 818.97 512.82 831.57 518.40 844.79 522.23 C 866.83 528.86 890.25 531.86 913.13 528.42 C 930.37 526.16 946.72 520.00 963.11 514.50 C 971.80 511.56 981.44 509.44 990.44 512.37 C 997.12 514.45 1000.94 521.32 1007.72 523.17 C 1012.69 524.77 1018.50 523.94 1022.53 520.50 C 1028.10 515.75 1031.29 508.62 1037.67 504.73 C 1045.49 499.31 1055.46 499.38 1064.56 500.00 C 1059.59 507.84 1053.48 514.87 1046.79 521.27 C 1060.39 519.58 1074.44 518.09 1087.89 521.57 C 1092.95 522.78 1097.58 525.21 1102.07 527.75 C 1094.78 529.15 1086.72 530.72 1081.65 536.67 C 1078.55 540.50 1075.68 544.52 1072.44 548.24 C 1084.77 546.32 1099.34 545.37 1109.37 554.23 C 1107.01 556.37 1103.72 555.97 1100.80 556.42 C 1097.58 556.79 1094.47 557.74 1091.36 558.56 C 1091.70 560.11 1092.03 561.66 1092.39 563.23 C 1097.17 562.13 1102.01 560.44 1106.98 561.12 C 1111.05 562.50 1112.87 566.84 1114.59 570.42 C 1113.76 570.45 1112.08 570.52 1111.24 570.55 C 1111.34 572.09 1111.22 573.71 1111.80 575.19 C 1112.57 577.45 1113.27 579.74 1113.76 582.09 C 1108.67 587.75 1099.05 588.67 1093.30 583.58 C 1090.91 580.11 1090.83 575.69 1089.73 571.74 C 1088.18 572.17 1086.67 572.62 1085.15 573.07 C 1086.26 578.03 1086.51 583.82 1090.49 587.51 C 1094.36 591.24 1100.08 591.49 1105.13 592.01 C 1106.55 595.39 1107.45 598.96 1107.56 602.64 C 1101.56 603.48 1094.99 605.91 1092.86 612.18 C 1089.17 610.43 1085.51 607.35 1085.59 602.91 C 1085.37 593.47 1076.17 587.35 1076.18 577.88 C 1074.60 577.90 1073.03 577.92 1071.47 577.95 C 1070.81 587.65 1079.52 594.03 1081.02 603.11 C 1077.35 609.40 1073.64 616.41 1066.95 619.94 C 1063.82 621.79 1060.04 620.96 1056.86 619.72 C 1057.48 618.84 1058.12 617.98 1058.77 617.12 C 1057.81 616.25 1056.84 615.38 1055.90 614.54 C 1055.63 614.46 1055.07 614.30 1054.79 614.22 C 1052.79 613.64 1050.85 612.91 1048.97 612.05 C 1046.81 610.65 1045.47 608.37 1043.93 606.39 C 1050.35 599.91 1056.34 591.67 1055.63 582.05 C 1054.02 582.26 1052.42 582.49 1050.83 582.74 C 1051.14 588.42 1048.45 593.67 1044.93 597.94 C 1042.91 600.44 1040.33 602.58 1039.20 605.67 C 1033.75 606.41 1028.20 605.95 1023.01 604.12 C 1023.79 603.42 1024.58 602.74 1025.39 602.06 C 1024.59 601.01 1023.84 599.98 1023.06 598.95 C 1022.64 598.89 1021.82 598.76 1021.40 598.70 C 1018.36 597.92 1015.47 596.63 1012.69 595.21 C 1009.93 592.59 1013.85 588.74 1016.33 587.33 C 1027.87 581.09 1041.35 580.37 1054.16 579.17 C 1049.99 567.42 1041.10 557.29 1029.51 552.47 C 1013.29 545.66 995.34 545.06 978.01 545.01 C 931.19 545.95 884.89 555.18 838.00 554.62 C 817.64 554.13 796.84 552.09 777.92 544.00 C 765.19 538.43 753.22 530.34 744.86 519.09 C 741.85 514.81 737.92 511.06 733.08 508.97 C 726.13 505.92 718.42 505.24 710.91 505.32 C 710.95 506.93 711.00 508.54 711.07 510.17 C 721.01 509.94 732.33 511.33 739.09 519.50 C 733.46 524.92 725.74 527.71 717.97 527.72 C 701.09 528.04 684.78 522.84 668.13 520.86 C 657.31 519.39 646.37 520.08 635.53 520.79 C 594.45 523.61 554.73 536.05 516.90 551.76 C 479.52 566.86 442.89 585.24 402.87 592.31 C 374.36 597.50 344.64 595.72 316.99 587.03 C 325.15 581.52 329.62 571.33 328.70 561.59 C 332.83 563.98 338.58 563.42 341.12 559.03 C 346.42 549.97 345.72 538.83 344.25 528.82 C 370.45 534.35 397.46 532.77 423.97 530.89 C 468.90 527.02 513.49 520.13 558.11 513.77 C 633.00 503.08 708.19 492.11 783.99 491.59 C 818.39 491.71 852.80 497.27 887.19 493.81 C 894.52 492.59 902.76 491.70 908.43 486.37 C 912.51 482.58 912.39 475.95 909.28 471.60 C 906.27 467.45 901.79 464.71 897.19 462.63 C 889.62 459.23 881.48 457.36 873.40 455.62 Z"/>
<path fill="#041d65" d=" M 87.93 459.37 C 94.06 457.11 101.00 458.35 106.61 461.43 C 105.88 464.47 101.99 465.88 99.93 468.19 C 97.28 465.85 94.69 463.35 91.47 461.81 C 90.26 461.05 88.74 460.62 87.93 459.37 Z"/>
<path fill="#1b0c09" d=" M 250.43 475.00 C 251.20 473.02 253.48 471.55 255.61 472.37 C 257.70 473.32 259.10 475.26 260.62 476.90 C 259.64 477.61 258.66 478.34 257.68 479.06 C 256.48 477.82 255.28 476.59 254.02 475.41 C 252.08 480.29 253.14 485.69 255.91 490.01 C 254.87 490.63 253.84 491.26 252.81 491.90 C 249.74 486.93 248.21 480.59 250.43 475.00 Z"/>
<path fill="#f1db18" d=" M 269.54 478.00 C 272.23 479.90 274.93 481.78 277.77 483.44 C 275.73 487.61 276.18 492.31 278.01 496.46 C 271.26 493.00 269.70 484.89 269.54 478.00 Z"/>
<path fill="#1b0c09" d=" M 314.50 483.76 C 318.83 489.83 323.02 496.59 330.05 499.83 C 334.94 502.43 340.55 502.64 345.95 502.38 C 348.74 502.40 349.79 505.59 349.53 507.93 C 348.94 512.79 346.76 517.61 343.05 520.89 C 342.09 520.27 341.16 519.62 340.25 518.95 C 343.59 515.27 346.06 510.71 346.10 505.63 C 340.56 506.27 337.58 511.46 332.95 513.90 C 328.24 516.71 321.56 517.52 317.06 513.89 C 314.22 511.81 312.83 508.37 312.03 505.07 C 310.57 497.90 312.38 490.60 314.50 483.76 Z"/>
<path fill="#f1db18" d=" M 284.08 485.93 C 287.11 486.42 290.17 486.68 293.24 486.88 C 290.62 490.99 287.17 494.70 282.43 496.30 C 284.07 493.08 284.39 489.48 284.08 485.93 Z"/>
<path fill="#f1db18" d=" M 315.31 504.44 C 314.99 500.43 315.13 496.39 315.95 492.45 C 317.80 494.50 319.68 496.54 321.68 498.46 C 319.04 499.85 317.04 502.06 315.31 504.44 Z"/>
<path fill="#041d65" d=" M 91.93 509.35 C 93.48 503.53 98.65 499.34 104.01 497.06 C 104.30 500.73 104.72 504.41 105.47 508.03 C 100.92 508.00 96.39 508.49 91.93 509.35 Z"/>
<path fill="#f1db18" d=" M 325.60 501.51 C 329.08 503.75 333.06 504.90 336.99 506.06 C 332.74 511.11 325.01 515.00 318.82 510.99 C 322.10 508.71 325.12 505.68 325.60 501.51 Z"/>
<path fill="#041d65" d=" M 61.20 519.44 C 66.26 519.96 73.63 521.41 74.21 527.63 C 72.31 528.01 70.42 528.40 68.52 528.78 C 66.18 525.59 63.65 522.55 61.20 519.44 Z"/>
<path fill="#f1db18" d=" M 716.01 532.60 C 725.35 532.74 735.00 529.99 741.92 523.49 C 743.12 524.81 744.34 526.15 745.57 527.49 C 741.97 529.81 738.28 532.22 735.69 535.69 C 731.87 540.83 732.87 549.00 738.22 552.70 C 745.31 557.85 754.73 557.49 762.24 561.77 C 768.25 564.68 767.39 573.97 762.87 577.85 C 755.65 583.24 745.48 581.81 738.35 587.43 C 731.52 592.62 729.64 601.71 723.52 607.49 C 720.81 610.04 717.28 611.39 713.80 612.51 C 716.37 602.67 713.38 592.18 706.73 584.63 C 704.27 594.82 703.28 606.09 696.30 614.45 C 691.02 620.37 682.81 622.34 675.17 622.57 C 678.95 615.54 682.02 608.01 682.97 600.04 C 683.55 594.83 683.20 589.59 682.69 584.40 C 674.07 596.28 665.29 608.70 652.76 616.77 C 648.00 619.87 642.70 622.11 637.14 623.27 C 641.61 612.73 642.62 601.20 642.07 589.87 C 638.57 593.82 635.55 598.15 632.50 602.45 C 630.44 605.36 627.42 607.41 624.05 608.45 C 622.67 605.90 621.87 603.11 621.55 600.24 C 619.96 600.25 618.37 600.25 616.80 600.27 C 616.97 604.46 618.17 608.63 620.91 611.88 C 615.15 617.44 606.46 618.20 598.94 616.80 C 595.47 615.94 591.56 614.47 589.92 611.03 C 588.54 608.35 589.24 605.12 590.62 602.60 C 593.04 600.26 596.44 599.43 599.52 598.31 C 599.19 596.74 598.86 595.18 598.54 593.63 C 594.94 594.69 591.23 595.85 588.29 598.28 C 585.67 600.35 584.20 603.58 581.28 605.30 C 573.33 610.55 563.59 613.04 554.11 612.27 C 550.46 611.99 546.54 610.69 544.37 607.57 C 542.11 603.65 543.78 599.03 545.07 595.08 C 557.99 594.73 570.93 594.92 583.86 594.74 C 583.88 593.13 583.91 591.54 583.94 589.95 C 569.60 589.93 555.27 590.09 540.94 589.96 C 535.54 589.74 529.37 588.80 525.65 584.48 C 522.30 580.20 524.47 574.36 527.96 570.92 C 536.52 570.35 543.74 575.93 552.14 576.19 C 560.65 577.00 569.20 576.53 577.71 575.92 C 577.57 574.29 577.44 572.67 577.31 571.06 C 568.85 571.78 560.33 572.13 551.87 571.29 C 552.63 567.51 553.88 563.55 556.92 560.96 C 560.14 558.13 565.04 558.55 568.64 560.42 C 575.38 563.79 580.21 569.83 584.44 575.90 C 605.68 575.78 627.08 575.18 647.98 571.07 C 661.01 568.51 673.85 564.35 685.23 557.38 C 675.88 553.67 665.40 550.34 659.20 541.87 C 655.46 537.02 654.80 530.77 654.81 524.86 C 675.52 524.71 695.33 532.42 716.01 532.60 Z"/>
<path fill="#041d65" d=" M 22.80 531.05 C 28.46 525.86 37.84 524.52 43.80 529.97 C 41.67 532.05 39.50 534.09 37.27 536.08 C 32.60 533.97 27.64 532.66 22.80 531.05 Z"/>
<path fill="#f1db18" d=" M 64.82 536.18 C 69.03 533.43 73.61 529.62 78.97 530.49 C 82.75 531.89 82.93 536.65 83.05 540.05 C 83.14 549.58 88.70 558.21 96.01 563.97 C 107.54 573.40 122.30 578.17 137.03 579.15 C 170.61 584.67 205.18 582.83 238.31 575.33 C 240.42 582.79 246.79 589.95 255.02 589.99 C 260.04 590.15 263.99 586.58 267.09 583.06 C 269.70 588.60 272.70 594.60 278.37 597.58 C 281.35 598.70 284.93 598.41 287.61 596.65 C 293.24 593.16 296.77 587.38 300.28 581.95 C 302.82 585.05 306.27 587.68 307.24 591.78 C 308.79 597.76 309.04 604.14 308.20 610.25 C 299.93 611.25 291.96 607.99 285.26 603.40 C 282.96 607.53 280.80 612.00 276.89 614.87 C 272.32 618.18 266.56 619.02 261.11 619.75 C 261.10 614.31 259.92 608.98 258.73 603.70 C 254.70 610.45 249.30 616.71 241.93 619.87 C 236.37 622.57 230.14 623.57 223.99 623.35 C 224.65 620.30 225.46 617.21 225.18 614.06 C 224.88 609.34 222.77 605.03 220.91 600.77 C 216.62 608.14 211.58 615.78 203.63 619.58 C 199.63 621.63 195.17 622.52 190.73 623.00 C 191.45 619.34 192.37 615.61 191.86 611.87 C 191.47 608.38 189.98 605.17 188.61 602.00 C 185.39 607.40 181.94 613.02 176.45 616.39 C 169.92 620.62 161.97 621.29 154.48 622.38 C 156.00 618.72 157.70 615.02 157.94 611.01 C 158.05 608.04 157.26 605.15 156.58 602.29 C 144.46 611.79 129.16 618.94 113.42 616.03 C 116.59 613.70 119.87 611.40 122.26 608.23 C 124.69 605.14 125.97 601.36 127.13 597.65 C 120.51 600.93 113.58 604.17 106.04 604.34 C 102.80 604.41 98.88 603.95 96.97 600.98 C 95.47 598.69 96.28 595.88 96.76 593.43 C 95.58 592.96 94.41 592.51 93.24 592.05 C 91.77 596.45 89.27 601.15 84.46 602.51 C 76.80 605.04 68.37 599.62 66.61 591.94 C 71.83 590.02 77.38 589.53 82.86 588.87 C 82.78 587.69 82.69 586.52 82.61 585.35 C 76.10 585.76 69.62 586.83 63.49 589.08 C 54.74 592.18 43.57 587.30 41.28 577.96 C 39.80 571.98 41.18 565.70 43.71 560.20 C 59.74 562.07 69.69 577.60 85.51 580.08 C 85.67 578.86 85.83 577.66 85.98 576.45 C 72.56 574.08 63.57 562.50 51.02 558.15 C 47.44 556.60 42.45 557.77 40.12 554.00 C 35.32 547.09 39.24 536.94 46.08 532.96 C 50.22 530.49 55.50 532.04 58.71 535.32 C 67.27 544.01 75.85 552.70 84.38 561.44 C 85.26 560.58 86.15 559.73 87.03 558.89 C 79.65 551.30 72.17 543.80 64.82 536.18 Z"/>
<path fill="#041d65" d=" M 277.00 533.22 C 281.50 533.03 285.94 532.18 290.13 530.50 C 293.46 534.44 297.27 537.97 301.59 540.82 C 298.77 548.23 294.91 555.58 288.35 560.35 C 283.36 563.81 278.06 566.94 272.37 569.12 C 274.19 557.20 277.14 545.35 277.00 533.22 Z"/>
<path fill="#ce142c" d=" M 266.03 553.54 C 270.66 547.52 271.50 539.84 272.65 532.60 C 273.16 539.62 271.68 546.53 271.40 553.52 C 269.61 553.52 267.82 553.52 266.03 553.54 Z"/>
<path fill="#ce142c" d=" M 294.39 560.62 C 296.89 559.17 297.04 555.86 299.03 554.21 C 298.15 556.88 298.13 559.71 298.11 562.50 C 297.72 562.46 296.94 562.40 296.55 562.37 C 295.82 561.77 295.10 561.20 294.39 560.62 Z"/>
<path fill="#041d65" d=" M 538.97 557.66 C 543.89 555.75 549.27 555.40 554.40 556.61 C 553.02 558.31 551.69 560.07 550.04 561.53 C 546.20 560.89 542.74 558.68 538.97 557.66 Z"/>
<path fill="#041d65" d=" M 21.68 574.52 C 26.46 570.82 31.98 568.17 37.66 566.19 C 37.62 568.98 37.29 571.76 36.62 574.48 C 31.64 574.05 26.66 574.33 21.68 574.52 Z"/>
<path fill="#041d65" d=" M 510.57 571.67 C 514.14 570.45 517.97 570.67 521.69 570.49 C 520.48 573.62 519.60 576.87 519.18 580.21 C 512.44 579.92 505.65 579.96 499.06 581.51 C 501.45 576.89 505.77 573.53 510.57 571.67 Z"/>
<path fill="#041d65" d=" M 1111.80 575.19 C 1118.57 575.37 1125.35 575.01 1132.11 575.52 C 1127.93 580.53 1121.14 581.20 1115.07 581.31 C 1114.73 582.12 1114.42 582.95 1114.11 583.79 C 1114.02 583.36 1113.85 582.51 1113.76 582.09 C 1113.27 579.74 1112.57 577.45 1111.80 575.19 Z"/>
<path fill="#041d65" d=" M 1012.69 595.21 C 1015.47 596.63 1018.36 597.92 1021.40 598.70 C 1016.61 603.11 1011.12 606.84 1007.18 612.12 C 1005.95 613.50 1005.09 615.41 1003.26 616.08 C 1002.44 612.16 1001.49 607.58 1003.84 604.00 C 1005.99 600.33 1010.09 598.50 1012.69 595.21 Z"/>
<path fill="#041d65" d=" M 521.92 614.81 C 524.76 608.30 531.65 604.20 538.46 602.98 C 538.94 605.45 539.43 607.93 539.91 610.41 C 533.76 611.25 527.92 613.33 521.92 614.81 Z"/>
<path fill="#041d65" d=" M 69.14 616.34 C 69.53 612.27 70.36 608.26 71.43 604.33 C 74.00 605.19 76.59 606.01 79.19 606.83 C 76.19 610.35 72.70 613.40 69.14 616.34 Z"/>
<path fill="#041d65" d=" M 1098.69 610.85 C 1100.56 609.38 1102.82 608.55 1104.98 607.59 C 1108.11 611.33 1112.01 614.30 1116.27 616.65 C 1110.88 618.19 1104.48 618.75 1099.81 615.06 C 1098.30 614.27 1097.72 612.27 1098.69 610.85 Z"/>
<path fill="#041d65" d=" M 1041.58 618.64 C 1042.45 615.63 1044.86 613.44 1046.76 611.06 C 1047.31 611.31 1048.42 611.80 1048.97 612.05 C 1050.85 612.91 1052.79 613.64 1054.79 614.22 C 1050.70 619.83 1046.01 625.00 1042.50 631.02 C 1040.93 627.10 1040.66 622.74 1041.58 618.64 Z"/>
<path fill="#041d65" d=" M 595.32 621.09 C 598.57 621.52 601.83 621.96 605.09 622.42 C 601.25 626.03 596.98 629.29 591.95 631.06 C 593.02 627.71 594.17 624.40 595.32 621.09 Z"/>
</svg>