<svg xmlns="http://www.w3.org/2000/svg" xmlns:xlink="http://www.w3.org/1999/xlink" width="1000" height="650"><defs><clipPath clipPathUnits="userSpaceOnUse" id="a"><path fill="#00f" fill-rule="evenodd" d="M0 0H700V455H0z"/></clipPath></defs><g clip-path="url(#a)" transform="scale(1.4285714)"><path fill="#0b216a" d="M0 0H700V455H0z"/><g id="d" transform="translate(0,0.02230451)"><use y="-45.5" x="25" xlink:href="#b" width="100%" height="100%"/><g id="b"><use x="-50" xlink:href="#c" width="100%" height="100%"/><path d="m 50,88.898 c 0.475,-0.555 1.311,-1.643 1.653,-2.794 0.379,-1.288 0.209,-3.114 0.118,-3.856 1.918,0.896 3.277,1.003 4.755,0.362 0,0 0.38,-0.167 0.382,-0.165 l -0.639,-0.294 c -1.023,-0.467 -2.717,-1.245 -3.478,-4.127 h 2.799 v -2.049 h -1.232 c 0.135,-4.058 2.274,-6.329 3.8,-6.407 0.751,-0.037 1.235,0.452 1.329,1.338 0.135,1.346 -0.575,3.104 -0.582,3.122 l -0.164,0.401 0.379,-0.156 c 1.974,-0.806 3.665,-2.179 4.891,-3.968 2.051,-2.995 1.369,-6.202 -0.366,-7.821 -1.639,-1.527 -4.463,-1.824 -7.077,0.956 -3.065,3.267 -4.506,9.75 -4.608,12.535 h -0.412 c -0.017,-3.337 -0.007,-5.401 1.565,-9.759 2.633,-7.29 1.579,-13.563 -3.111,-18.658 -4.69,5.094 -5.745,11.368 -3.113,18.66 1.573,4.356 1.583,6.42 1.567,9.757 h -0.413 c -0.1,-2.786 -1.543,-9.269 -4.608,-12.533 -2.614,-2.782 -5.438,-2.483 -7.077,-0.958 -1.735,1.62 -2.417,4.826 -0.366,7.821 1.226,1.791 2.917,3.162 4.891,3.968 l 0.379,0.156 -0.164,-0.401 c -0.008,-0.019 -0.718,-1.776 -0.583,-3.122 0.094,-0.887 0.579,-1.373 1.33,-1.336 1.525,0.078 3.663,2.348 3.799,6.407 h -1.231 v 2.047 h 2.796 c -0.76,2.882 -2.453,3.662 -3.478,4.127 l -0.638,0.294 c 0.002,0 0.383,0.165 0.383,0.165 1.477,0.641 2.836,0.534 4.755,-0.36 -0.091,0.739 -0.261,2.565 0.119,3.854 0.338,1.151 1.175,2.239 1.65,2.794 z" id="c" fill="gold"/><use x="50" xlink:href="#c" width="100%" height="100%"/><use x="100" xlink:href="#c" width="100%" height="100%"/><use x="150" xlink:href="#c" width="100%" height="100%"/><use x="200" xlink:href="#c" width="100%" height="100%"/><use x="250" xlink:href="#c" width="100%" height="100%"/><use x="300" xlink:href="#c" width="100%" height="100%"/></g><use y="45.5" x="25" xlink:href="#b" width="100%" height="100%"/><use y="91" xlink:href="#b" width="100%" height="100%"/><use y="136.5" x="25" xlink:href="#b" width="100%" height="100%"/></g><use y="227.5" x="350" xlink:href="#d" width="100%" height="100%" transform="translate(0,4.5515939e-6)"/><g id="f"><path fill="#a30000" d="M350 0H700V227.5H350z"/><g transform="translate(-0.27638997,0.20882816)"><use height="100%" width="100%" xlink:href="#e" y="-70"/><g id="e" stroke="#000"><g fill="#0139ab"><path d="m 663.966,134.223 c 0,2.76 1.099,5.521 1.648,6.441 0.548,0.92 0.823,2.07 0.823,2.07 0,0 1.921,-1.61 1.921,-3.45 0,-1.84 -0.549,-4.371 -0.549,-4.371"/><path d="m 654.084,134.223 c 0,0.23 -1.648,1.38 -1.373,3.45 0.274,2.07 1.098,3.68 1.098,3.45 0,-0.23 0,-2.07 1.922,-3.22 1.921,-1.15 4.941,-1.84 4.941,-1.84"/><path d="m 652.162,129.393 c -6.314,3.91 -4.117,5.981 -4.117,5.981 0,0 0.274,-0.92 2.47,-0.92 2.196,0 6.314,1.15 6.314,1.15"/><path d="m 552.238,137.674 c -0.549,3.68 1.372,5.981 1.372,5.981 0,0 2.196,-1.15 1.922,-4.14 -0.275,-2.99 -1.647,-4.601 -1.647,-4.601"/><path d="m 542.355,135.374 c -0.275,0 -2.471,1.15 -4.118,2.3 -1.647,1.15 -1.373,2.99 -1.373,2.99 0,0 4.942,-1.84 6.589,-1.61 1.647,0.23 2.47,1.15 2.47,1.15"/><path d="m 544.002,129.623 c -4.667,-1.15 -7.962,1.38 -7.686,1.38 0.274,0 4.667,0 5.49,1.38 0.823,1.38 3.02,2.99 3.02,2.99"/><path d="m 554.159,126.863 c -0.549,0 -0.549,-1.84 -3.02,-2.07 -2.47,-0.23 -4.393,1.15 -4.393,1.15 0,0 5.216,2.76 5.491,2.76 0.274,0 1.921,-1.38 1.921,-1.84 z"/><path d="m 390.03,96.875 c 0.388,-1.952 -0.485,-5.124 -0.485,-5.124 0,0 1.747,-0.163 3.494,1.301 1.747,1.464 0.971,3.822 0.971,3.822"/><path d="m 379.839,96.143 c 0.388,-3.985 -2.621,-5.042 -2.718,-5.042 -0.097,0 2.815,-0.732 4.756,0 1.941,0.732 2.718,4.392 2.718,4.392"/><path d="m 371.492,97.363 c -2.329,-3.578 -4.465,-2.765 -4.465,-2.765 0,0 1.747,-1.383 4.173,-0.976 2.426,0.407 4.562,2.277 4.562,2.196"/><path d="m 373.821,105.332 c -2.135,0.976 -2.718,1.383 -4.465,1.139 -1.747,-0.244 -3.106,-0.325 -3.106,-0.325 0,0 1.068,-2.846 2.426,-3.172 1.359,-0.325 3.785,-0.244 3.785,-0.244"/><path d="m 380.115,123.182 c 0,-1.84 -1.373,-2.76 -1.373,-2.76 0,0 1.922,-1.15 3.843,0.46 1.922,1.61 2.745,4.14 2.745,4.14"/><path d="m 372.172,125.745 c -0.097,0 -0.971,-1.383 -2.232,-1.871 -1.262,-0.488 -2.426,-0.569 -2.038,-0.569 0.388,0 0,-0.976 2.718,-0.976 2.718,0 4.465,0.732 4.465,0.732"/><path d="m 371.104,129.893 c -5.921,-0.325 -6.503,2.684 -6.309,2.765 0.194,0.081 2.426,0.976 3.785,1.057 1.359,0.081 2.524,0 2.524,0"/><path d="m 373.821,136.887 c -3.009,3.497 -2.426,5.367 -2.135,5.367 0.291,0 1.359,-0.488 2.912,-1.464 1.553,-0.976 2.621,-2.846 2.621,-2.846"/></g><g fill="#ffd128"><path d="m 376.272,129.393 c 0.275,0 1.373,-7.361 5.216,-6.901 3.843,0.46 2.471,0.46 3.843,0.92 1.373,0.46 4.118,5.521 4.118,5.521"/><path d="m 653.538,133.717 c -0.583,-0.325 -5.047,-2.277 -2.718,-3.904 2.329,-1.626 16.112,-0.325 16.112,-0.325"/><path d="m 562.887,133.229 c -1.553,-0.488 -3.3,-0.651 -5.241,-3.253 -1.941,-2.602 -0.776,-2.602 -1.553,-3.253 -0.776,-0.651 -2.33,-0.325 -5.047,0.163 -2.718,0.488 -1.941,5.693 -1.941,5.693"/><path d="m 585.987,112.084 c -1.553,0.488 -14.947,5.855 -14.559,8.783 0.389,2.928 8.542,4.554 8.348,6.343 -0.195,1.789 -7.765,3.09 -14.753,3.253 -6.988,0.163 -8.93,1.139 -13.006,0.488 -4.076,-0.651 -10.093,-3.904 -11.258,-0.163 -1.165,3.741 0.388,3.904 0.388,3.904 0,0 -0.97,1.952 0,3.578 0.971,1.626 1.942,2.602 4.464,2.602 2.524,0 3.3,-1.301 3.3,-1.301 0,0 0.388,1.626 4.852,1.789 4.465,0.163 5.824,-1.627 6.018,-1.627 0.194,0 3.882,0.651 5.629,0.325 1.747,-0.325 4.076,-1.139 4.076,-1.139 0,0 -1.941,2.277 -1.747,2.277 0.194,0 3.882,-0.163 7.764,-0.651 3.882,-0.488 6.794,-2.602 6.6,-2.602 -0.194,0 -3.3,2.928 1.553,2.765 4.853,-0.163 7.183,-3.253 10.676,-2.928 3.494,0.325 5.435,-0.325 5.435,-0.325 0,0 0.971,-1.301 2.136,-1.952 1.165,-0.651 2.524,-0.813 2.524,-0.813 0,0 3.106,-0.325 3.106,-0.488 0,-0.163 0,-4.066 0,-4.066 0,0 -5.047,-0.325 -5.047,-3.253 0,-2.928 13.588,-6.018 13.588,-6.018 l -30.087,-8.783 z"/><path d="m 389.933,110.132 c 0.776,-13.337 5.047,-7.807 5.047,-10.735 0,-2.928 -1.747,-4.88 -3.106,-4.88 -3.106,0 -10.87,5.53 -10.87,5.53"/><path d="m 444.09,119.241 c -1.941,-0.487 -32.029,-3.903 -42.122,-7.156 -10.094,-3.253 -14.364,-8.458 -15.141,-11.06 -0.776,-2.602 1.165,-6.831 -4.659,-6.831 -5.823,0 -2.718,4.229 -2.718,4.229 0,0 -4.659,-6.831 -8.153,-2.928 -3.494,3.904 4.271,6.831 4.271,6.831 0,0 -7.512,-2.621 -5.629,1.626 3.164,7.138 8.347,4.554 9.123,6.181 0.776,1.627 -3.882,3.253 -3.106,3.578 0.776,0.325 3.882,1.464 5.823,1.789 1.941,0.325 4.659,0.813 4.659,0.813 l -2.912,1.951 c 0,0 5.435,3.253 8.153,4.066 2.718,0.813 6.212,0 6.017,0 -0.194,0 -5.047,1.789 -5.047,1.789 0,0 2.718,1.301 5.629,1.626 2.912,0.325 5.435,0.488 5.435,0.488 l -3.106,1.139 41.928,6.994 1.553,-15.127 z"/><path d="m 446.808,116.639 c -0.971,0.163 -18.829,11.06 -37.658,11.548 -18.829,0.488 -29.505,-0.325 -29.505,-0.325 0,0 -2.718,-7.482 -7.376,-4.066 -4.659,3.416 -0.971,4.717 -0.971,4.717 0,0 0.776,-0.163 1.941,0.651 1.165,0.813 1.941,1.789 1.941,1.789 0,0 -6.212,-4.229 -6.212,0.813 0,5.042 4.076,3.253 3.882,3.253 -0.194,0 -0.971,4.392 0,4.554 0.971,0.163 4.853,0.976 6.988,0.651 2.135,-0.325 1.941,-1.301 2.524,-1.464 0.582,-0.163 3.882,-1.301 4.465,-0.813 0.582,0.488 -3.688,3.578 -2.912,3.578 0.776,0 7.182,0 9.123,-1.301 1.941,-1.301 2.912,-3.253 3.106,-3.09 0.194,0.163 -3.3,3.904 -2.912,3.904 0.388,0 7.376,0.651 9.123,0.163 1.747,-0.488 3.494,-2.114 3.494,-2.114 0,0 -1.165,1.952 -0.776,2.114 0.388,0.163 3.882,0.325 7.182,-0.651 3.3,-0.976 4.659,-1.789 4.659,-1.789 l -0.971,2.277 c 0,0 5.047,-0.163 7.959,-1.952 2.912,-1.789 4.271,-1.952 4.271,-1.952 0,0 -2.912,2.765 -2.524,2.765 0.388,0 5.629,-0.163 7.959,-0.813 2.329,-0.651 4.659,-1.139 4.659,-1.139 0,0 -2.718,2.277 -2.524,2.277 0.194,0 3.882,0.163 8.541,-0.813 4.659,-0.976 7.959,-2.115 7.959,-2.115 0,0 -5.435,3.253 -4.27,3.253 1.165,0 8.153,0.163 11.646,-0.976 3.494,-1.139 4.271,-2.277 4.271,-2.277 0,0 11.258,0.325 13.588,-1.139 2.329,-1.464 1.747,-2.114 1.553,-1.952 -0.194,0.163 6.794,0.976 10.481,1.464 3.688,0.488 11.453,0.651 16.694,-0.163 5.24,-0.813 62.31,-19.518 72.792,-19.193 10.482,0.325 12.423,2.44 15.529,2.277 3.106,-0.163 4.853,-0.976 4.853,-0.813 0,0.163 15.335,9.922 36.105,9.271 20.771,-0.651 16.694,-1.627 19.994,-1.789 3.3,-0.163 7.182,1.626 6.794,3.253 -0.388,1.627 -2.136,2.602 -4.27,2.765 -2.136,0.163 -4.464,1.301 -4.464,2.928 0,1.626 2.329,3.904 4.852,3.904 2.524,0 3.3,-0.813 4.076,-0.976 0.777,-0.163 1.553,1.789 4.853,0.976 3.3,-0.813 4.27,-1.626 5.046,-1.789 0.777,-0.163 5.824,-0.325 5.824,-0.488 0,-0.163 0.388,-5.367 0.388,-5.367 0,0 5.435,-0.325 5.435,-1.301 0,-0.976 -1.941,-3.09 -3.106,-4.066 -1.165,-0.976 -2.524,-1.789 -2.524,-1.789 0,0 3.688,1.139 4.464,0.976 0.777,-0.163 2.524,-0.813 2.524,-0.813 0,0 -2.524,-2.44 -4.464,-3.253 -1.942,-0.813 -6.6,-1.627 -6.6,-1.627 0,0 2.718,-0.325 4.852,-1.301 2.136,-0.976 4.076,-2.277 4.076,-2.44 0,-0.163 -5.823,-2.928 -10.287,-2.602 -4.464,0.325 -10.676,3.416 -18.247,3.416 -7.57,0 -15.723,-3.253 -15.723,-3.253 0,0 11.064,0 16.112,-0.163 5.046,-0.163 15.917,-2.114 15.917,-8.133 0,-6.018 -8.347,-9.271 -28.535,-9.596 -20.187,-0.325 -61.056,-0.009 -73.812,0.797 -20.678,1.307 -40.688,0.357 -50.2,0.357 -9.512,0 -12.035,-1.139 -12.229,-3.741 -0.102,-1.364 4.222,-1.834 8.36,-2.043 1.344,-0.068 10.257,-1.287 21.156,-1.271 19.582,0.028 45.571,1.328 45.571,1.179 0,-0.488 0.388,-1.139 0.582,-1.139 0.194,0 1.553,1.952 3.494,2.114 1.941,0.163 5.823,-0.325 5.823,-0.325 0,0 1.553,1.464 4.27,1.301 2.718,-0.163 3.882,-1.301 3.882,-1.301 0,0 1.553,1.139 4.464,0.976 2.913,-0.163 5.047,-2.277 5.63,-2.277 0.582,0 2.718,0.325 4.658,-0.325 1.941,-0.651 10.87,-5.53 10.87,-5.53 0,0 -7.765,1.139 -12.423,1.139 -4.659,0 -7.571,-1.464 -13.394,-0.976 -5.823,0.488 -12.035,1.952 -15.335,1.789 -2.141,-0.105 -28.109,-1.488 -48.109,-1.591 -10.836,-0.056 -19.921,1.124 -22.513,1.124 -7.376,0 -13.976,4.066 -14.752,8.783 -0.777,4.717 6.356,4.666 14.558,7.157 10.951,3.326 109.842,-1.48 124.595,-1.154 14.753,0.325 24.264,0.976 24.264,4.554 0,3.578 -9.9,3.741 -17.082,3.578 -7.182,-0.163 -23.875,-1.789 -36.105,-1.626 -12.229,0.163 -90.845,9.596 -105.015,9.434 -14.171,-0.163 -22.906,-0.813 -22.906,-0.976 0,-0.163 -33.97,2.44 -33.97,2.114 z M 587.919,87.845 c 0,0 0.97,1.627 2.329,2.277 1.359,0.651 3.3,1.464 3.3,1.464 m 2.524,-3.253 c 0,0 1.359,0.163 1.941,0.813 0.583,0.651 1.942,1.464 1.942,1.464 m 5.435,-3.09 c 1.164,0 2.523,1.952 2.523,1.952"/><path d="m 434.057,119.275 c 0.274,-0.23 1.098,-2.415 1.784,-4.025 0.686,-1.61 1.922,-3.68 1.922,-3.68 0,0 -2.745,1.035 -2.608,0.805 0.137,-0.23 -0.549,-3.45 0.961,-5.751 1.51,-2.3 3.02,-3.565 3.02,-4.485 0,-0.92 -1.51,-0.46 -1.51,-2.3 0,-1.84 -0.686,-4.486 1.098,-5.061 1.784,-0.575 7.274,3.45 7.274,3.22 0,-0.23 -1.235,-5.521 1.099,-5.866 2.333,-0.345 5.627,1.84 5.627,1.84 0,0 1.099,-4.6 1.922,-4.6 0.823,0 3.02,3.565 3.02,3.565 0,0 2.196,-3.795 3.02,-3.795 0.823,0 3.294,4.025 3.294,4.025 0,0 1.235,-3.45 2.883,-3.45 1.647,0 2.882,4.14 2.882,4.14 0,0 1.099,-2.185 2.608,-1.955 1.51,0.23 2.745,5.751 2.745,5.751 0,0 3.981,-3.565 6.589,-3.105 2.608,0.46 0,5.176 0.137,7.246 0.137,2.07 2.608,3.105 2.746,4.601 0.137,1.495 0.137,10.811 0,10.811 -0.138,0 -27.589,5.981 -30.746,5.636 -3.157,-0.345 -19.628,-3.335 -19.765,-3.565 z"/><path d="m 448.652,108.996 c -1.942,2.685 -9.414,10.249 -10.967,11.55 -1.553,1.301 -5.435,3.253 -5.435,3.253 0,0 1.553,1.952 4.27,1.626 2.718,-0.325 6.6,-2.602 6.6,-2.602 0,0 -4.367,2.845 -5.726,4.39 -1.359,1.545 -2.232,4.148 -2.232,4.148 0,0 5.435,-0.081 8.735,-2.358 3.3,-2.277 5.435,-4.148 5.338,-4.148 -0.097,0 -3.203,2.684 -3.009,4.636 0.195,1.952 -0.485,3.578 -0.388,3.578 0.097,0 3.979,-1.383 5.726,-2.521 1.748,-1.139 4.465,-3.741 4.465,-3.741 0,0 -0.971,3.334 -0.389,4.88 0.583,1.545 2.136,3.741 2.039,3.741 -0.097,0 2.718,-1.057 4.173,-3.416 1.456,-2.358 1.941,-4.229 1.941,-4.229 0,0 0.486,3.253 2.039,4.392 1.553,1.139 8.541,0.895 8.541,0.895 0,0 -2.427,-0.488 -3.203,-2.765 -0.777,-2.277 -0.486,-4.961 -0.486,-4.961 0,0 1.748,3.009 3.397,3.334 1.65,0.325 3.009,-0.651 4.173,0 1.165,0.651 2.718,2.846 2.815,2.765 0.097,-0.081 3.3,-1.22 1.553,-3.985 -1.747,-2.765 -5.241,-2.928 -7.085,-4.717 -1.845,-1.789 -2.912,-4.554 -2.912,-4.636 0,-0.081 1.553,3.985 3.882,4.879 2.329,0.895 3.687,1.87 6.988,1.952 3.3,0.081 4.949,1.464 4.949,2.602 0,1.139 -0.291,1.87 -0.291,1.87 0,0 3.785,-0.488 3.785,-3.741 0,-3.253 -2.33,-4.554 -4.853,-5.042 -2.524,-0.488 -7.182,-1.383 -8.25,-2.358 -1.068,-0.976 -1.359,-1.952 -1.359,-1.952 0,0 0.388,1.789 2.524,2.358 2.136,0.569 4.95,1.708 6.891,1.301 1.942,-0.407 6.988,-4.473 6.988,-4.473 0,0 -4.658,-0.488 -9.512,-1.626 -4.852,-1.139 -5.977,-5.12 -5.977,-5.12 l -29.74,0.241 z"/></g><g fill="none"><path d="m 455.47,122.15 c 0,0 2.058,-1.84 5.353,-1.955 3.294,-0.115 7,2.415 7,2.415"/><path d="m 458.489,114.329 c 0,0.345 -1.236,2.185 -0.961,4.83 0.274,2.645 3.98,4.6 3.98,4.6 0,0 3.98,-1.38 4.117,-4.715 0.137,-3.335 -0.549,-5.175 -0.549,-5.175 l -6.588,0.46 z" fill="#0139ab"/><path d="m 461.783,114.444 c 0,0 0.138,5.981 0,5.981" stroke-linecap="round"/><path d="m 442.156,107.314 c 0.137,0 2.333,0.805 2.333,2.99 0,2.185 0.961,5.061 3.981,5.061 3.02,0 4.254,-1.265 4.392,-1.15 0.138,0.115 2.059,3.565 5.079,3.105 3.02,-0.46 3.98,-3.105 3.98,-3.105 0,0 1.647,3.45 3.98,3.105 2.333,-0.345 3.706,-3.45 3.706,-3.45 0,0 1.922,1.955 3.98,1.61 2.059,-0.345 3.706,-1.725 4.53,-3.22 0.823,-1.495 1.099,-4.255 0.962,-4.255" fill="#ffd128"/><path d="m 457.528,101.333 c 0,0 2.608,6.671 -3.568,6.556 -6.177,-0.115 -3.02,-3.105 -4.942,-3.22 -1.921,-0.115 -2.882,0 -2.882,0"/><path d="m 463.019,100.758 c 0,0 -1.51,7.706 3.568,7.131 5.079,-0.575 6.314,-3.565 6.314,-3.565"/><path d="m 440.508,96.618 c 0,0 0.686,3.22 2.059,5.176 1.373,1.955 2.471,1.61 3.706,1.955 0,-1.38 0,-1.955 -1.51,-3.795 -1.51,-1.84 -4.255,-3.105 -4.255,-3.335 z" fill="#000" stroke="none"/><path d="m 476.196,103.288 c 0,-0.115 -0.549,-2.415 0.961,-4.485 1.51,-2.07 3.157,-2.53 3.157,-2.53 0,0 0.274,1.84 -0.823,3.68 -1.098,1.84 -2.883,3.68 -3.294,3.335 z" fill="#000" stroke="none"/><path d="m 450.254,103.748 c 0.686,0 3.431,-2.53 6.725,0"/><path d="m 464.94,103.173 c 3.432,-2.07 7.137,0.46 7.137,0.46"/><path d="m 456.567,105.243 c 0,0.698 -1.261,1.265 -2.813,1.265 -1.554,0 -2.814,-0.567 -2.814,-1.265 0,-0.698 1.261,-1.265 2.814,-1.265 1.553,0 2.813,0.567 2.813,1.265 z"/><path d="m 470.98,105.013 c 0,0.698 -1.23,1.265 -2.745,1.265 -1.516,0 -2.746,-0.567 -2.746,-1.265 0,-0.698 1.23,-1.265 2.746,-1.265 1.515,0 2.745,0.567 2.745,1.265 z"/><path d="m 453.685,103.633 c 0,0.115 0.138,2.99 0.138,2.99"/><path d="m 467.96,103.518 0.137,2.875"/><ellipse cx="461.509" cy="111.971" rx="3.569" ry="2.243" fill="#000" stroke="none"/><path d="m 669.844,130.789 c 0,0 -0.583,1.789 0.194,2.765 0.776,0.976 2.524,2.928 2.524,2.928"/><path d="m 664.603,132.253 c 0,0 -2.912,1.789 -2.718,2.928 0.194,1.139 0.97,2.277 0.97,2.277"/><path d="m 674.502,128.512 c 3.688,0.651 3.688,2.277 3.688,2.277"/><path d="m 545.029,133.392 c -0.777,0.163 -3.882,1.464 -3.882,1.464"/><path d="m 550.658,135.831 c -0.971,0.325 -1.941,-0.163 -2.33,1.464 -0.388,1.627 0.583,2.44 0.583,2.44"/><path d="m 559.005,136.482 c 0.194,0 1.359,0.813 1.359,1.626 0,0.813 -0.776,1.789 -0.776,1.789"/><path d="m 374.404,132.904 c -0.194,0 -1.553,0.976 -1.553,2.115"/><path d="m 599.842,118.084 c -1.925,-1.22 -3.683,-2.951 -3.683,-2.951"/></g></g><use height="100%" width="100%" xlink:href="#e" y="70"/></g></g><use y="227.5" x="-350" xlink:href="#f" width="100%" height="100%"/></g></svg>