<svg xmlns="http://www.w3.org/2000/svg" xmlns:xlink="http://www.w3.org/1999/xlink" viewBox="0 0 1800 1800"><defs><path id="a" fill="gold" d="M-24-16.5c9 22 13 50 13 77h-7c-6-49-19-113-71-113-22 0-39 20-39 38 0 29 17 49 52 61-5-15-9-39 6-39 24 0 35 29 35 53h-3c-5 0-8 3-8 8s4 8 8 8h17c-8 21-22 29-33 35 17 8 37 0 41-5-1 6 0 22 2 33 1 9 5 14 11 21 6-7 10-12 11-21 2-11 3-27 2-33 4 5 24 13 41 5-11-6-25-14-33-35h17c5 0 8-3 8-8s-3-8-8-8h-3c0-24 11-53 35-53 15 0 11 24 6 39 35-12 52-32 52-61 0-18-17-38-39-38-52 0-65 64-71 113h-7c0-27 4-55 13-77 30-67 9-112-24-144-33 32-54 77-24 144z"/></defs><path fill="#009" d="M0 0h1800v1800H0z"/><g id="b"><use xlink:href="#a" y="550"/><use xlink:href="#a" y="1250"/><use xlink:href="#a" x="180" y="200"/><use xlink:href="#a" x="180" y="900"/><use xlink:href="#a" x="180" y="1600"/></g><use xlink:href="#b" x="360"/><use xlink:href="#b" x="720"/><use xlink:href="#b" x="1080"/><use xlink:href="#b" x="1440"/><use xlink:href="#a" x="1800" y="550"/><use xlink:href="#a" x="1800" y="1250"/></svg>